<svg width="35" height="24" viewBox="0 0 35 24" fill="none" xmlns="http://www.w3.org/2000/svg">
<g id="Payment method icon">
<rect x="0.5" y="0.5" width="33.8" height="23" rx="3.5" fill="white"/>
<path id="ApplePay" fill-rule="evenodd" clip-rule="evenodd" d="M9.60454 8.34316C9.3092 8.69506 8.83664 8.97261 8.36409 8.93296C8.30502 8.45715 8.53638 7.95161 8.80711 7.63936C9.10246 7.27755 9.61931 7.01983 10.0377 7C10.0869 7.49563 9.89497 7.98135 9.60454 8.34316ZM10.0328 9.02713C9.61645 9.003 9.23658 9.15319 8.92975 9.2745C8.7323 9.35257 8.5651 9.41867 8.43789 9.41867C8.29514 9.41867 8.12103 9.34903 7.92555 9.27084C7.6694 9.16838 7.37655 9.05124 7.06945 9.05686C6.36555 9.06678 5.71086 9.46824 5.35153 10.1076C4.61316 11.3863 5.15955 13.2796 5.87331 14.3205C6.2228 14.8359 6.6412 15.4009 7.19252 15.3811C7.43506 15.3719 7.60953 15.2973 7.79009 15.2202C7.99797 15.1314 8.21392 15.0391 8.55111 15.0391C8.8766 15.0391 9.08311 15.129 9.28134 15.2152C9.46982 15.2973 9.65083 15.376 9.91954 15.3712C10.4905 15.3613 10.8499 14.8557 11.1994 14.3403C11.5765 13.7871 11.7423 13.2471 11.7674 13.1652L11.7704 13.1557C11.7698 13.1551 11.7651 13.153 11.7569 13.1492C11.6308 13.0911 10.6671 12.6469 10.6579 11.4557C10.6486 10.4559 11.4223 9.94936 11.544 9.86962L11.544 9.86961C11.5515 9.86476 11.5565 9.86149 11.5587 9.85978C11.0665 9.12625 10.2986 9.04695 10.0328 9.02713ZM13.9855 15.3167V7.5898H16.8651C18.3517 7.5898 19.3903 8.62071 19.3903 10.1274C19.3903 11.6341 18.332 12.675 16.8258 12.675H15.1767V15.3167H13.9855ZM15.1766 8.60088H16.55C17.5837 8.60088 18.1744 9.15599 18.1744 10.1324C18.1744 11.1088 17.5837 11.6688 16.5451 11.6688H15.1766V8.60088ZM23.3234 14.3898C23.0084 14.9945 22.3143 15.3761 21.5661 15.3761C20.4586 15.3761 19.6857 14.712 19.6857 13.7108C19.6857 12.7196 20.4339 12.1496 21.8171 12.0653L23.3037 11.9761V11.5499C23.3037 10.9204 22.8952 10.5785 22.1666 10.5785C21.5661 10.5785 21.128 10.8907 21.0394 11.3665H19.9663C20.0008 10.3653 20.936 9.63675 22.2011 9.63675C23.5646 9.63675 24.4506 10.3554 24.4506 11.4706V15.3167H23.348V14.3898H23.3234ZM21.886 14.4592C21.251 14.4592 20.8473 14.1519 20.8473 13.6811C20.8473 13.1954 21.2362 12.9129 21.9795 12.8683L23.3036 12.784V13.2202C23.3036 13.9438 22.6933 14.4592 21.886 14.4592ZM28.108 15.619C27.6305 16.9721 27.0841 17.4181 25.9224 17.4181C25.8338 17.4181 25.5385 17.4082 25.4695 17.3884V16.4616C25.5434 16.4715 25.7255 16.4814 25.819 16.4814C26.3457 16.4814 26.6411 16.2584 26.8232 15.6785L26.9315 15.3365L24.9133 9.71111H26.1587L27.5616 14.2759H27.5862L28.9891 9.71111H30.2L28.108 15.619Z" fill="black"/>
<rect x="0.5" y="0.5" width="33.8" height="23" rx="3.5" stroke="#E9E8E8"/>
</g>
</svg>
