<svg width="122" height="40" viewBox="0 0 122 40" fill="none" xmlns="http://www.w3.org/2000/svg">
<g id="logo-removebg-preview 1" clip-path="url(#clip0_1033_218)">
<g id="Group">
<path id="Vector" fill-rule="evenodd" clip-rule="evenodd" d="M20.485 -0.121216C21.2931 -0.121216 22.1012 -0.121216 22.9093 -0.121216C24.374 1.67568 25.4649 3.69587 26.182 5.93939C27.3949 9.4168 28.607 12.8916 29.8184 16.3636C30.1524 18.2113 29.3847 19.0598 27.5153 18.9091C27.1684 18.7963 26.8858 18.5943 26.6669 18.303C26.1275 17.3865 25.7236 16.4168 25.4547 15.3939C23.9603 14.386 22.3037 13.7396 20.485 13.4545C19.852 13.4681 19.3267 13.7105 18.9093 14.1818C18.4614 15.4067 17.9765 16.6188 17.4547 17.8182C16.5474 19.1585 15.4969 19.3201 14.3032 18.303C14.6925 14.9691 15.5409 11.7368 16.8487 8.60606C17.6951 7.11871 18.2607 5.50257 18.5456 3.75757C18.8741 2.29998 19.5206 1.00705 20.485 -0.121216ZM23.3941 8.12121C23.5644 9.04257 23.7664 9.93146 24.0002 10.7879C23.2457 11.048 22.478 11.048 21.6972 10.7879C20.9309 10.3902 20.5268 9.7437 20.485 8.84848C21.0031 5.13449 21.9728 4.89207 23.3941 8.12121Z" fill="white"/>
</g>
<g id="Group_2">
<path id="Vector_2" fill-rule="evenodd" clip-rule="evenodd" d="M76.4846 -0.121216C77.2926 -0.121216 78.1009 -0.121216 78.9089 -0.121216C80.0003 1.17676 80.8488 2.63132 81.4543 4.24242C83.0204 8.32482 84.475 12.446 85.818 16.6061C86.1089 18.0558 85.5028 18.8638 83.9998 19.0303C83.3419 18.9235 82.8168 18.6003 82.424 18.0606C82.083 16.8734 81.5579 15.7824 80.8483 14.7879C79.4143 14.2694 77.9598 13.8249 76.4846 13.4545C75.7259 13.4905 75.1198 13.8137 74.6665 14.4242C74.3394 15.8926 73.7334 17.2259 72.8483 18.4242C70.7365 19.3863 69.888 18.6994 70.3028 16.3636C71.7928 11.0859 73.5705 5.91415 75.6362 0.848481C75.9697 0.556343 76.2524 0.233111 76.4846 -0.121216ZM80.121 10.7879C79.1348 11.0826 78.1651 11.0018 77.2119 10.5455C76.2539 8.86652 76.4153 7.25035 77.6968 5.69697C78.1717 5.99954 78.5353 6.40358 78.7877 6.90909C79.2328 8.20657 79.6774 9.49951 80.121 10.7879Z" fill="white"/>
</g>
<g id="Group_3">
<path id="Vector_3" fill-rule="evenodd" clip-rule="evenodd" d="M89.5759 -0.121216C93.4547 -0.121216 97.3335 -0.121216 101.212 -0.121216C101.892 0.544379 102.094 1.35246 101.818 2.30303C101.647 2.51648 101.445 2.67811 101.212 2.78787C98.5444 2.74751 95.8777 2.78792 93.2123 2.90909C92.9902 2.97658 92.8288 3.09779 92.7274 3.27272C91.5439 4.1048 91.3015 5.15529 92.0002 6.42424C92.3764 7.02026 92.942 7.3839 93.6971 7.51515C94.6651 7.55643 95.6348 7.51604 96.6062 7.39394C97.5706 8.3757 97.5706 9.38581 96.6062 10.4242C96.1279 10.5444 95.6431 10.5847 95.1517 10.5455C94.42 10.5055 93.6928 10.5459 92.9699 10.6667C92.8351 10.7594 92.7543 10.8806 92.7274 11.0303C91.9922 11.4916 91.669 12.1785 91.7577 13.0909C91.6974 13.8966 91.9398 14.5835 92.485 15.1515C92.5863 15.3264 92.7478 15.4477 92.9699 15.5151C95.797 15.6363 98.6254 15.6767 101.455 15.6364C102.504 16.8967 102.261 17.9068 100.727 18.6667C97.1718 18.8283 93.6164 18.8283 90.0608 18.6667C89.5459 18.3947 89.1015 18.0311 88.7274 17.5758C88.3289 12.4256 88.2482 7.25386 88.485 2.0606C88.5951 1.1939 88.9587 0.466624 89.5759 -0.121216Z" fill="white"/>
</g>
<g id="Group_4">
<path id="Vector_4" fill-rule="evenodd" clip-rule="evenodd" d="M110.667 -0.121216C111.556 -0.121216 112.444 -0.121216 113.333 -0.121216C115.396 3.19025 116.972 6.74579 118.061 10.5455C119.478 12.6959 120.206 15.0393 120.243 17.5758C119.123 19.3007 117.83 19.3815 116.364 17.8182C115.58 16.5361 114.651 15.3644 113.576 14.303C111.49 13.8103 109.793 14.4164 108.485 16.1212C107.796 17.3011 107.392 18.594 107.273 20C106.448 20.0382 105.64 19.9574 104.849 19.7576C104.598 19.4153 104.437 19.0113 104.364 18.5455C105.528 12.9028 107.185 7.40783 109.333 2.0606C109.736 1.29714 110.181 0.569865 110.667 -0.121216ZM110.667 5.93939C111.136 6.46024 111.661 6.94509 112.243 7.39394C112.738 6.97971 113.182 6.49486 113.576 5.93939C113.657 6.02019 113.738 6.10101 113.818 6.18181C113.261 6.85161 112.938 7.61927 112.849 8.48484C113.152 9.26295 113.435 10.0306 113.697 10.7879C113.268 10.1692 112.783 9.60356 112.243 9.09091C111.74 9.40007 111.377 9.84451 111.152 10.4242C110.95 10.591 110.788 10.5505 110.667 10.303C111.248 9.78666 111.572 9.14019 111.636 8.36363C111.443 7.49338 111.12 6.68528 110.667 5.93939Z" fill="white"/>
</g>
<g id="Group_5">
<path id="Vector_5" opacity="0.999" fill-rule="evenodd" clip-rule="evenodd" d="M1.57552 -0.121216C4.08056 -0.121216 6.58562 -0.121216 9.09067 -0.121216C13.0946 1.098 14.428 3.76468 13.0907 7.87878C12.6844 9.0128 11.9975 9.94208 11.0301 10.6667C9.37256 11.6977 7.67559 12.6674 5.93915 13.5758C5.26516 14.0151 4.6591 14.5404 4.12097 15.1515C3.56768 16.3895 3.12322 17.6421 2.78764 18.9091C1.86354 19.4198 1.05546 19.2985 0.363394 18.5455C0.292189 12.721 0.372996 6.90278 0.605818 1.09091C0.753995 0.539494 1.07723 0.135453 1.57552 -0.121216ZM3.99976 1.81818C4.7424 1.08929 5.6313 0.968076 6.66642 1.45454C7.76999 1.91368 8.73969 2.56014 9.57551 3.39394C9.26427 3.55971 8.98145 3.51929 8.72703 3.27272C8.2903 3.75219 7.80545 4.15621 7.27248 4.48484C5.85001 3.9679 5.40558 4.41236 5.93915 5.81818C6.39901 6.0872 6.84344 6.12761 7.27248 5.93939C7.07852 6.77328 7.36136 7.46014 8.12097 8C7.89052 8.17394 7.85013 8.37597 7.99976 8.60606C8.8129 8.95922 9.09571 9.52489 8.84824 10.303C8.23801 10.6411 7.59156 10.8836 6.90885 11.0303C6.06153 10.7215 5.33425 10.2367 4.72703 9.57575C4.55918 9.7031 4.43796 9.8647 4.36339 10.0606C3.90592 9.69064 3.66349 9.20579 3.63612 8.60606C3.35624 8.30465 3.03302 8.06223 2.66642 7.87878C2.63299 7.41032 2.75421 6.96589 3.03006 6.54545C2.14371 5.78157 2.0629 4.93309 2.78764 4C2.71059 3.72186 2.54899 3.51985 2.30279 3.39394C3.14659 2.69207 3.99508 2.65166 4.84824 3.27272C4.96945 3.15151 5.09067 3.0303 5.21188 2.90909C4.99096 2.32368 4.58691 1.96005 3.99976 1.81818Z" fill="white"/>
</g>
<g id="Group_6">
<path id="Vector_6" fill-rule="evenodd" clip-rule="evenodd" d="M46.1819 -0.121216C46.5861 -0.121216 46.9899 -0.121216 47.3941 -0.121216C47.8922 0.135453 48.2156 0.539494 48.3637 1.09091C48.1548 6.74468 48.0741 12.4012 48.1213 18.0606C48.0406 18.6263 47.7172 18.9495 47.1516 19.0303C46.3875 19.1615 45.7814 18.9191 45.3334 18.303C45.1734 17.5326 44.9715 16.8053 44.7274 16.1212C43.3007 12.7145 40.917 10.2095 37.5759 8.60606C37.2714 8.64201 36.9885 8.72281 36.7274 8.84848C36.4139 9.17381 36.212 9.57786 36.1213 10.0606C36.0001 12.8069 35.9596 15.5544 36.0001 18.303C35.667 18.8991 35.1419 19.1415 34.4244 19.0303C34.0607 18.9899 33.6971 18.9495 33.3334 18.9091C33.1511 18.7465 33.0702 18.5445 33.091 18.303C33.0309 12.5619 33.1116 6.82453 33.3334 1.09091C34.021 0.0910218 34.9097 -0.110998 36.0001 0.484845C38.2602 3.22964 40.6845 5.81549 43.2728 8.24242C43.6636 8.41704 44.0273 8.37663 44.3637 8.12121C44.604 7.56179 44.8059 6.99614 44.9698 6.42424C45.1143 4.42208 45.3567 2.40189 45.6971 0.363633C45.8588 0.202016 46.0202 0.0404004 46.1819 -0.121216Z" fill="white"/>
</g>
<g id="Group_7">
<path id="Vector_7" fill-rule="evenodd" clip-rule="evenodd" d="M59.273 -0.121216C60.1619 -0.121216 61.0507 -0.121216 61.9396 -0.121216C63.8761 0.548227 65.5326 1.67954 66.9093 3.27272C67.5721 4.77435 67.1278 5.74404 65.576 6.18181C65.1399 6.16315 64.7358 6.04194 64.3639 5.81818C63.7631 4.96157 63.0359 4.27471 62.1821 3.75757C61.7644 3.4424 61.239 3.28077 60.6063 3.27272C60.081 3.31314 59.5559 3.35352 59.0305 3.39394C58.8085 3.46143 58.647 3.58264 58.5457 3.75757C55.592 5.62261 54.5011 8.28928 55.273 11.7576C56.3564 15.3487 58.6594 16.6013 62.1821 15.5151C63.7413 14.6185 64.3474 13.2852 64.0002 11.5151C63.0162 11.1639 62.0061 10.881 60.9699 10.6667C60.1551 9.4054 60.3976 8.43571 61.6972 7.75757C67.4148 7.09568 69.233 9.47951 67.1518 14.9091C65.0499 18.5242 61.9389 19.8575 57.8184 18.9091C54.6327 17.8662 52.6933 15.7248 52.0002 12.4848C51.8524 10.9538 51.7716 9.41849 51.7578 7.87878C52.5193 3.56211 55.0242 0.895434 59.273 -0.121216Z" fill="white"/>
</g>
<g id="Group_8">
<path id="Vector_8" opacity="0.735" fill-rule="evenodd" clip-rule="evenodd" d="M101.212 2.78789C100.653 3.16288 100.006 3.3245 99.2725 3.27274C97.089 2.94974 94.9072 2.94974 92.7271 3.27274C92.8284 3.09781 92.9898 2.9766 93.2119 2.90911C95.8774 2.78794 98.544 2.74753 101.212 2.78789Z" fill="white"/>
</g>
<g id="Group_9">
<path id="Vector_9" opacity="0.481" fill-rule="evenodd" clip-rule="evenodd" d="M45.6969 0.363647C45.3566 2.4019 45.1142 4.4221 44.9697 6.42425C44.9294 4.72537 44.9697 3.0284 45.0909 1.33334C45.1394 0.892215 45.3416 0.568981 45.6969 0.363647Z" fill="white"/>
</g>
<g id="Group_10">
<path id="Vector_10" opacity="0.165" fill-rule="evenodd" clip-rule="evenodd" d="M62.1818 3.75755C60.9697 3.43433 59.7575 3.43433 58.5454 3.75755C58.6467 3.58262 58.8082 3.46141 59.0303 3.39392C59.5556 3.35351 60.0807 3.31312 60.606 3.27271C61.2387 3.28075 61.7641 3.44238 62.1818 3.75755Z" fill="white"/>
</g>
<g id="Group_11">
<path id="Vector_11" opacity="0.727" fill-rule="evenodd" clip-rule="evenodd" d="M0.606179 1.09088C0.373357 6.90276 0.29255 12.7209 0.363755 18.5454C0.202139 17.899 0.0405225 17.2525 -0.121094 16.606C-0.121094 16.2828 -0.121094 15.9596 -0.121094 15.6363C0.202139 12.3232 0.202139 9.01008 -0.121094 5.69694C-0.121094 5.13129 -0.121094 4.56562 -0.121094 3.99997C0.0165277 3.00567 0.258952 2.03598 0.606179 1.09088Z" fill="white"/>
</g>
<g id="Group_12">
<path id="Vector_12" opacity="0.714" fill-rule="evenodd" clip-rule="evenodd" d="M18.5456 3.75757C18.2607 5.50256 17.6951 7.11871 16.8486 8.60605C17.3244 6.93531 17.89 5.31914 18.5456 3.75757Z" fill="white"/>
</g>
<g id="Group_13">
<path id="Vector_13" opacity="0.384" fill-rule="evenodd" clip-rule="evenodd" d="M33.3335 1.09088C33.1117 6.82451 33.031 12.5619 33.0911 18.303C32.7391 17.7339 32.5777 17.0874 32.6063 16.3636C32.7924 11.8412 32.9137 7.3159 32.9699 2.78785C33.015 2.17315 33.1362 1.6075 33.3335 1.09088Z" fill="white"/>
</g>
<g id="Group_14">
<path id="Vector_14" opacity="0.549" fill-rule="evenodd" clip-rule="evenodd" d="M92 6.42426C93.473 7.27087 95.0085 7.59412 96.6061 7.39395C95.6347 7.51606 94.665 7.55645 93.697 7.51516C92.9418 7.38392 92.3762 7.02028 92 6.42426Z" fill="white"/>
</g>
<g id="Group_15">
<path id="Vector_15" opacity="0.225" fill-rule="evenodd" clip-rule="evenodd" d="M51.7576 7.87878C51.7714 9.41849 51.8522 10.9538 52.0001 12.4848C51.5101 10.9654 51.4294 9.43003 51.7576 7.87878Z" fill="white"/>
</g>
<g id="Group_16">
<path id="Vector_16" opacity="0.255" fill-rule="evenodd" clip-rule="evenodd" d="M23.3937 8.12122C23.7473 8.71086 24.0301 9.35731 24.2422 10.0606C24.53 11.026 24.1665 11.43 23.1513 11.2727C22.5737 11.3064 22.0889 11.1448 21.6968 10.7879C22.4776 11.0481 23.2453 11.0481 23.9998 10.7879C23.766 9.93147 23.564 9.04257 23.3937 8.12122Z" fill="white"/>
</g>
<g id="Group_17">
<path id="Vector_17" opacity="0.01" fill-rule="evenodd" clip-rule="evenodd" d="M95.1513 10.5455C94.3794 10.745 93.5714 10.9066 92.7271 11.0303C92.754 10.8806 92.8347 10.7594 92.9695 10.6667C93.6924 10.5459 94.4197 10.5055 95.1513 10.5455Z" fill="white"/>
</g>
<g id="Group_18">
<path id="Vector_18" opacity="0.349" fill-rule="evenodd" clip-rule="evenodd" d="M77.2119 10.5455C78.1651 11.0018 79.1348 11.0826 80.121 10.7879C79.9188 11.0904 79.5957 11.252 79.1513 11.2727C78.3692 11.3095 77.7227 11.067 77.2119 10.5455Z" fill="white"/>
</g>
<g id="Group_19">
<path id="Vector_19" opacity="0.286" fill-rule="evenodd" clip-rule="evenodd" d="M36.7273 8.84851C36.3593 12.0195 36.1169 15.171 36 18.3031C35.9596 15.5544 36 12.8069 36.1213 10.0606C36.2119 9.57789 36.4139 9.17384 36.7273 8.84851Z" fill="white"/>
</g>
<g id="Group_20">
<path id="Vector_20" opacity="0.688" fill-rule="evenodd" clip-rule="evenodd" d="M92.4849 15.1515C94.8669 15.4705 97.2509 15.4705 99.6364 15.1515C100.32 15.1292 100.926 15.2908 101.455 15.6364C98.6252 15.6767 95.7969 15.6363 92.9697 15.5151C92.7477 15.4477 92.5862 15.3264 92.4849 15.1515Z" fill="white"/>
</g>
<g id="Group_21">
<path id="Vector_21" opacity="0.89" fill-rule="evenodd" clip-rule="evenodd" d="M48.3634 1.09088C48.36 6.19195 48.4408 11.3637 48.6059 16.606C48.5819 17.1633 48.4202 17.6481 48.121 18.0606C48.0737 12.4012 48.1545 6.74465 48.3634 1.09088Z" fill="white"/>
</g>
<g id="Group_22">
<path id="Vector_22" opacity="0.728" fill-rule="evenodd" clip-rule="evenodd" d="M44.7273 16.1212C44.9714 16.8053 45.1734 17.5326 45.3334 18.303C45.7814 18.9191 46.3874 19.1616 47.1516 19.0303C46.2117 19.469 45.4442 19.2266 44.8485 18.303C44.7278 17.5802 44.6873 16.8529 44.7273 16.1212Z" fill="white"/>
</g>
<g id="Group_23">
<path id="Vector_23" opacity="0.814" fill-rule="evenodd" clip-rule="evenodd" d="M108.485 16.1212C108.131 17.5075 107.727 18.8812 107.273 20.2424C106.325 20.6508 105.517 20.4892 104.849 19.7576C105.64 19.9574 106.448 20.0382 107.273 20C107.392 18.594 107.796 17.3011 108.485 16.1212Z" fill="white"/>
</g>
<g id="Group_24">
<path id="Vector_24" opacity="0.255" fill-rule="evenodd" clip-rule="evenodd" d="M0.121094 25.0909C40.1613 24.8485 80.2421 24.7678 120.364 24.8485C120.428 25.2361 120.348 25.5593 120.121 25.8182C120.121 25.5758 120.121 25.3334 120.121 25.0909C80.1211 25.0909 40.1211 25.0909 0.121094 25.0909Z" fill="#F0C0C0"/>
</g>
<g id="Group_25">
<path id="Vector_25" opacity="0.945" fill-rule="evenodd" clip-rule="evenodd" d="M-0.121094 25.0909C-0.0402858 25.0909 0.0405225 25.0909 0.12133 25.0909C40.1213 25.0909 80.1213 25.0909 120.121 25.0909C120.121 25.3333 120.121 25.5757 120.121 25.8182C80.0641 26.1411 39.9834 26.1411 -0.121094 25.8182C-0.121094 25.5757 -0.121094 25.3333 -0.121094 25.0909Z" fill="#D54736"/>
</g>
<g id="Group_26">
<path id="Vector_26" opacity="0.058" fill-rule="evenodd" clip-rule="evenodd" d="M72.8487 31.1515C71.4727 31.1112 70.0989 31.1517 68.7275 31.2727C68.5246 31.5178 68.4439 31.8007 68.4851 32.1212C68.1697 31.7857 68.1697 31.422 68.4851 31.0303C69.9835 30.8317 71.4381 30.872 72.8487 31.1515Z" fill="white"/>
</g>
<g id="Group_27">
<path id="Vector_27" opacity="0.995" fill-rule="evenodd" clip-rule="evenodd" d="M93.2119 30.9091C94.0994 31.5952 94.0994 32.2819 93.2119 32.9697C95.0114 34.231 95.0924 35.6046 93.4543 37.0909C92.1712 37.5685 90.9995 37.3666 89.9392 36.4849C89.3736 35.3964 89.4948 34.4267 90.3028 33.5758C90.6948 33.4453 91.0989 33.3646 91.5149 33.3333C91.5312 33.687 91.4504 34.0102 91.2725 34.303C90.6306 35.7038 91.1154 36.2291 92.727 35.8788C92.9874 35.6996 93.1491 35.4572 93.2119 35.1515C93.0301 34.5283 92.7069 34.0029 92.2422 33.5758C91.224 32.8885 91.0623 32.04 91.7573 31.0303C92.2356 30.9103 92.7205 30.8698 93.2119 30.9091ZM92.2422 33.5758C92.7069 34.0029 93.0301 34.5283 93.2119 35.1515C93.1491 35.4572 92.9874 35.6996 92.727 35.8788C91.1154 36.2291 90.6306 35.7038 91.2725 34.303C91.5956 34.0606 91.919 33.8182 92.2422 33.5758Z" fill="white"/>
</g>
<g id="Group_28">
<path id="Vector_28" opacity="0.999" fill-rule="evenodd" clip-rule="evenodd" d="M43.0301 30.6667C43.6126 30.6407 44.057 30.8832 44.3634 31.3939C45.0245 32.8919 45.5901 34.4274 46.0604 36C47.1983 38.4647 48.7336 38.7879 50.6665 36.9697C51.4827 37.7673 51.3615 38.4541 50.3028 39.0303C47.4619 39.8308 45.5627 38.8209 44.6059 36C44.1976 35.6204 43.7128 35.3779 43.1513 35.2727C42.7077 35.7658 42.2633 36.2912 41.818 36.8485C41.5879 36.9981 41.386 36.9578 41.2119 36.7273C41.3913 34.5876 41.9974 32.5675 43.0301 30.6667ZM43.2725 33.0909C43.681 33.2567 43.9234 33.5799 43.9998 34.0606C43.8122 34.3542 43.6102 34.3542 43.3937 34.0606C43.2749 33.7472 43.2345 33.4238 43.2725 33.0909Z" fill="white"/>
</g>
<g id="Group_29">
<path id="Vector_29" opacity="0.999" fill-rule="evenodd" clip-rule="evenodd" d="M47.1514 30.9091C50.4998 30.9016 51.8331 32.5178 51.1514 35.7576C50.4695 36.7246 49.5403 37.1287 48.3635 36.9697C47.8159 36.9619 47.2908 36.881 46.7878 36.7273C46.6261 35.0303 46.6261 33.3333 46.7878 31.6364C46.9121 31.3874 47.0334 31.145 47.1514 30.9091ZM48.3635 32.3636C49.7138 32.7198 50.2392 33.6085 49.9393 35.0303C49.2256 35.9598 48.5386 35.9598 47.8787 35.0303C48.0406 34.1341 48.2023 33.2453 48.3635 32.3636Z" fill="white"/>
</g>
<g id="Group_30">
<path id="Vector_30" opacity="0.998" fill-rule="evenodd" clip-rule="evenodd" d="M66.5456 31.1515C66.8487 31.1702 67.0506 31.3319 67.1517 31.6364C67.2729 33.3314 67.3131 35.0284 67.2729 36.7273C66.98 37.0381 66.6567 37.0381 66.3032 36.7273C66.0571 35.2536 65.2491 34.2839 63.879 33.8182C63.7294 33.8451 63.6082 33.9258 63.5153 34.0606C63.3943 34.9459 63.3541 35.8347 63.3941 36.7273C63.1517 36.7273 62.9093 36.7273 62.6668 36.7273C62.3868 34.9927 62.3463 33.215 62.5456 31.3939C62.8203 30.9792 63.1839 30.8579 63.6365 31.0303C64.2375 31.9144 64.9648 32.6819 65.8183 33.3333C65.9497 32.5367 66.1922 31.8095 66.5456 31.1515Z" fill="white"/>
</g>
<g id="Group_31">
<path id="Vector_31" opacity="0.999" fill-rule="evenodd" clip-rule="evenodd" d="M80.606 30.6667C83.7549 30.5023 84.7245 31.8761 83.5151 34.7879C83.7502 35.4999 83.9119 36.2272 83.9999 36.9697C83.5665 37.0388 83.1624 36.9581 82.7878 36.7273C81.9842 34.8548 81.3379 34.8548 80.8484 36.7273C80.5253 37.0504 80.2019 37.0504 79.8787 36.7273C79.6048 35.0424 79.5643 33.3455 79.7575 31.6364C79.9248 31.1879 80.2075 30.8645 80.606 30.6667ZM81.0909 32.1212C82.3985 31.8919 82.8026 32.3767 82.303 33.5758C81.9379 33.8781 81.5742 33.8781 81.2121 33.5758C81.0921 33.0975 81.0516 32.6126 81.0909 32.1212Z" fill="white"/>
</g>
<g id="Group_32">
<path id="Vector_32" opacity="0.998" fill-rule="evenodd" clip-rule="evenodd" d="M100.97 30.6667C101.541 30.8306 102.107 31.0325 102.667 31.2727C103.392 32.2095 103.231 32.9772 102.182 33.5758C102.04 33.5251 101.918 33.4441 101.818 33.3334C102.027 32.1629 101.542 31.8398 100.364 32.3637C99.6086 34.0427 99.5684 35.7397 100.242 37.4546C100.94 38.1726 101.506 38.0919 101.939 37.2121C101.521 36.2153 101.845 35.8517 102.909 36.1212C103.644 37.8279 103.078 38.8381 101.212 39.1515C100.228 39.1646 99.4607 38.7607 98.909 37.9394C98.0253 35.7986 98.1061 33.6975 99.1514 31.6364C99.6981 31.1518 100.304 30.8286 100.97 30.6667Z" fill="white"/>
</g>
<g id="Group_33">
<path id="Vector_33" opacity="0.998" fill-rule="evenodd" clip-rule="evenodd" d="M105.091 31.1515C105.33 32.4788 105.411 33.8526 105.333 35.2727C105.764 35.7197 106.33 35.8812 107.03 35.7576C108.004 35.5973 108.327 35.9205 108 36.7273C106.684 36.7956 105.391 36.7149 104.121 36.4848C104.081 34.7859 104.121 33.089 104.242 31.3939C104.487 31.191 104.77 31.1103 105.091 31.1515Z" fill="white"/>
</g>
<g id="Group_34">
<path id="Vector_34" opacity="0.997" fill-rule="evenodd" clip-rule="evenodd" d="M114.303 30.9091C115.196 30.8691 116.085 30.9094 116.97 31.0303C117.793 31.4449 118.157 32.1317 118.061 33.0909C119.346 34.0664 119.468 35.1574 118.424 36.3637C116.941 37.1106 115.445 37.1511 113.94 36.4849C113.693 34.5847 113.814 32.7261 114.303 30.9091ZM115.273 32.1212C117.182 32.3203 117.182 32.6434 115.273 33.0909C115.273 32.7678 115.273 32.4444 115.273 32.1212ZM116.243 34.0606C117.58 34.0541 117.903 34.5794 117.212 35.6364C116.631 35.8087 116.065 35.7683 115.515 35.5152C115.118 34.7023 115.36 34.2175 116.243 34.0606Z" fill="white"/>
</g>
<g id="Group_35">
<path id="Vector_35" opacity="0.997" fill-rule="evenodd" clip-rule="evenodd" d="M52.0002 30.9091C52.4584 30.8599 52.8221 31.0213 53.0911 31.3939C53.2705 32.5193 53.6342 33.5699 54.1821 34.5454C54.6938 33.441 55.1384 32.3096 55.5154 31.1515C55.8385 30.8283 56.1619 30.8283 56.4851 31.1515C56.3372 32.8121 55.9331 34.4283 55.273 36C54.465 37.2928 53.6567 37.2928 52.8487 36C52.4853 34.5466 52.1217 33.0921 51.7578 31.6363C51.8027 31.3736 51.8834 31.1311 52.0002 30.9091Z" fill="white"/>
</g>
<g id="Group_36">
<path id="Vector_36" opacity="0.997" fill-rule="evenodd" clip-rule="evenodd" d="M58.3033 30.9091C59.039 31.1302 59.7663 31.1302 60.4851 30.9091C61.4679 30.9545 61.791 31.3988 61.4548 32.2425C60.5658 32.3232 59.6771 32.4041 58.7881 32.4849C58.5852 32.73 58.5045 33.0129 58.5457 33.3334C59.0371 33.2941 59.5219 33.3346 60.0002 33.4546C60.3025 33.8168 60.3025 34.1804 60.0002 34.5455C59.5069 34.6766 59.022 34.8383 58.5457 35.0303C58.5963 35.1724 58.6773 35.2936 58.7881 35.394C59.5961 35.4747 60.4043 35.5557 61.2123 35.6364C61.8191 36.0689 61.8191 36.473 61.2123 36.8485C60.081 37.0102 58.9498 37.0102 57.8184 36.8485C57.6972 36.7273 57.576 36.6061 57.4548 36.4849C57.2931 34.8686 57.2931 33.2526 57.4548 31.6364C57.6936 31.3178 57.9765 31.0754 58.3033 30.9091Z" fill="white"/>
</g>
<g id="Group_37">
<path id="Vector_37" opacity="0.999" fill-rule="evenodd" clip-rule="evenodd" d="M72.8487 31.1515C73.2957 31.3222 73.4169 31.6453 73.2123 32.1212C72.6468 32.2829 72.0809 32.4444 71.5154 32.6061C71.4346 33.9799 71.3537 35.3535 71.2729 36.7273C70.8688 37.0504 70.4649 37.0504 70.0608 36.7273C69.8708 35.4213 69.911 34.1285 70.182 32.8485C69.6678 32.4805 69.1023 32.2381 68.4851 32.1212C68.4438 31.8007 68.5246 31.5178 68.7275 31.2727C70.0989 31.1518 71.4727 31.1113 72.8487 31.1515Z" fill="white"/>
</g>
<g id="Group_38">
<path id="Vector_38" opacity="0.998" fill-rule="evenodd" clip-rule="evenodd" d="M74.3029 31.1515C74.6234 31.1103 74.9063 31.191 75.1514 31.3939C75.2719 32.0354 75.3124 32.6819 75.2726 33.3333C75.403 33.9852 75.5647 34.6317 75.7575 35.2727C76.0893 35.6664 76.4935 35.7876 76.9696 35.6363C77.4435 34.8223 77.5245 33.9738 77.212 33.0909C77.3177 32.4414 77.4389 31.7951 77.5756 31.1515C78.0455 30.8218 78.4493 30.9025 78.7878 31.3939C78.7955 32.7656 78.7148 34.1394 78.5453 35.5151C77.7473 37.1011 76.5756 37.4647 75.0302 36.606C74.6566 36.2233 74.3737 35.7787 74.1817 35.2727C73.9834 33.8548 74.0236 32.4812 74.3029 31.1515Z" fill="white"/>
</g>
<g id="Group_39">
<path id="Vector_39" opacity="0.06" fill-rule="evenodd" clip-rule="evenodd" d="M74.3032 31.1515C74.6387 30.8361 75.0024 30.8361 75.3941 31.1515C75.5893 31.9263 75.5488 32.6536 75.2729 33.3333C75.3127 32.6819 75.2722 32.0354 75.1517 31.3939C74.9066 31.191 74.6237 31.1103 74.3032 31.1515Z" fill="white"/>
</g>
<g id="Group_40">
<path id="Vector_40" opacity="0.997" fill-rule="evenodd" clip-rule="evenodd" d="M85.6968 30.9091C86.6653 31.1879 87.635 31.2284 88.6059 31.0303C89.1918 31.3077 89.3535 31.7115 89.0908 32.2425C88.1245 32.3634 87.1548 32.4039 86.1817 32.3637C86.1817 32.6868 86.1817 33.0102 86.1817 33.3334C86.6731 33.2941 87.1579 33.3346 87.6362 33.4546C87.8735 34.5496 87.3887 34.994 86.1817 34.7879C86.1817 35.0303 86.1817 35.2728 86.1817 35.5152C87.0743 35.4752 87.963 35.5154 88.8483 35.6364C89.5756 36.202 89.4949 36.6061 88.6059 36.8485C87.4134 37.0429 86.2418 37.0025 85.0908 36.7273C84.7063 35.1377 84.6253 33.5215 84.8483 31.8788C85.0156 31.4303 85.2983 31.1069 85.6968 30.9091Z" fill="white"/>
</g>
<g id="Group_41">
<path id="Vector_41" opacity="0.998" fill-rule="evenodd" clip-rule="evenodd" d="M108.728 30.9091C109.048 30.8679 109.331 30.9486 109.576 31.1515C109.612 32.5452 109.773 33.9188 110.061 35.2727C110.594 35.8378 111.079 35.8378 111.515 35.2727C111.596 34.0606 111.677 32.8485 111.758 31.6363C111.971 30.9464 112.375 30.7847 112.97 31.1515C113.132 32.5253 113.132 33.8989 112.97 35.2727C111.926 37.4536 110.552 37.696 108.849 36C108.085 34.3134 108.045 32.6165 108.728 30.9091Z" fill="white"/>
</g>
<g id="Group_42">
<path id="Vector_42" opacity="0.18" fill-rule="evenodd" clip-rule="evenodd" d="M105.091 31.1515C104.771 31.1103 104.488 31.191 104.243 31.3939C104.121 33.089 104.081 34.7859 104.121 36.4849C103.841 34.7503 103.801 32.9726 104 31.1515C104.392 30.8361 104.756 30.8361 105.091 31.1515Z" fill="white"/>
</g>
<g id="Group_43">
<path id="Vector_43" opacity="0.02" fill-rule="evenodd" clip-rule="evenodd" d="M93.2123 30.9091C92.7209 30.8698 92.2361 30.9103 91.7578 31.0303C91.0627 32.04 91.2244 32.8885 92.2426 33.5757C91.9195 33.8182 91.5961 34.0606 91.2729 34.303C91.4509 34.0102 91.5316 33.687 91.5153 33.3333C91.0993 33.3646 90.6952 33.4453 90.3032 33.5757C90.5086 33.2203 90.8317 33.0182 91.2729 32.9697C90.7103 32.2126 90.7912 31.4853 91.5153 30.7879C92.1309 30.5949 92.6964 30.6354 93.2123 30.9091Z" fill="white"/>
</g>
<g id="Group_44">
<path id="Vector_44" opacity="0.38" fill-rule="evenodd" clip-rule="evenodd" d="M66.5454 31.1515C66.798 30.8386 67.0807 30.8386 67.3939 31.1515C67.5932 33.0534 67.5529 34.9118 67.2727 36.7273C67.3129 35.0284 67.2727 33.3314 67.1515 31.6364C67.0504 31.3319 66.8484 31.1702 66.5454 31.1515Z" fill="white"/>
</g>
<g id="Group_45">
<path id="Vector_45" opacity="0.026" fill-rule="evenodd" clip-rule="evenodd" d="M105.333 35.2727C105.928 35.4097 106.493 35.5714 107.03 35.7576C106.33 35.8812 105.765 35.7197 105.333 35.2727Z" fill="white"/>
</g>
<g id="Group_46">
<path id="Vector_46" opacity="0.78" fill-rule="evenodd" clip-rule="evenodd" d="M63.8786 33.8182C63.9189 34.7913 63.8784 35.761 63.7574 36.7273C63.3657 37.0427 63.002 37.0427 62.6665 36.7273C62.9089 36.7273 63.1514 36.7273 63.3938 36.7273C63.3538 35.8347 63.394 34.9459 63.515 34.0606C63.6078 33.9258 63.729 33.8451 63.8786 33.8182Z" fill="white"/>
</g>
<g id="Group_47">
<path id="Vector_47" opacity="0.337" fill-rule="evenodd" clip-rule="evenodd" d="M104.121 36.4849C105.391 36.7149 106.684 36.7957 108 36.7273C107.399 36.8883 106.753 36.969 106.06 36.9697C105.311 36.9644 104.665 36.8029 104.121 36.4849Z" fill="white"/>
</g>
</g>
<defs>
<clipPath id="clip0_1033_218">
<rect width="121.212" height="40" fill="white"/>
</clipPath>
</defs>
</svg>
