<svg width="146" height="49" viewBox="0 0 146 49" fill="none" xmlns="http://www.w3.org/2000/svg">
<g id="logo-removebg-preview 1" clip-path="url(#clip0_857_41482)">
<g id="Group">
<path id="Vector" fill-rule="evenodd" clip-rule="evenodd" d="M24.5818 0.354492C25.5514 0.354492 26.5212 0.354492 27.4908 0.354492C29.2485 2.51077 30.5576 4.935 31.4181 7.62722C32.8735 11.8001 34.3281 15.9698 35.7818 20.1363C36.1826 22.3535 35.2613 23.3717 33.0181 23.1909C32.6018 23.0555 32.2626 22.8131 31.9999 22.4636C31.3527 21.3637 30.868 20.2001 30.5454 18.9727C28.7521 17.7632 26.7642 16.9874 24.5818 16.6454C23.8221 16.6617 23.1918 16.9526 22.6908 17.5181C22.1534 18.9879 21.5715 20.4425 20.9454 21.8818C19.8566 23.4901 18.596 23.6841 17.1636 22.4636C17.6307 18.4629 18.6488 14.5841 20.2181 10.8272C21.2338 9.0424 21.9126 7.10303 22.2545 5.00904C22.6486 3.25993 23.4244 1.70842 24.5818 0.354492ZM28.0727 10.2454C28.277 11.351 28.5194 12.4177 28.7999 13.4454C27.8945 13.7576 26.9733 13.7576 26.0363 13.4454C25.1168 12.9681 24.6319 12.1924 24.5818 11.1181C25.2034 6.66134 26.367 6.37043 28.0727 10.2454Z" fill="#87D0CD"/>
</g>
<g id="Group_2">
<path id="Vector_2" fill-rule="evenodd" clip-rule="evenodd" d="M91.782 0.354492C92.7516 0.354492 93.7215 0.354492 94.6911 0.354492C96.0007 1.91207 97.0189 3.65753 97.7456 5.59086C99.6249 10.4897 101.37 15.4352 102.982 20.4272C103.331 22.1669 102.604 23.1365 100.8 23.3363C100.011 23.2082 99.3805 22.8203 98.9092 22.1727C98.4999 20.748 97.8698 19.4389 97.0183 18.2454C95.2976 17.6232 93.5521 17.0899 91.782 16.6454C90.8714 16.6885 90.1441 17.0764 89.6001 17.809C89.2077 19.571 88.4804 21.171 87.4183 22.609C84.8842 23.7635 83.866 22.9392 84.3638 20.1363C86.1517 13.803 88.2849 7.59694 90.7638 1.51813C91.1641 1.16756 91.5033 0.779685 91.782 0.354492ZM96.1456 13.4454C94.9622 13.799 93.7985 13.7021 92.6547 13.1545C91.505 11.1398 91.6988 9.20037 93.2365 7.33631C93.8064 7.69939 94.2428 8.18425 94.5456 8.79086C95.0797 10.3478 95.6132 11.8994 96.1456 13.4454Z" fill="#88D0CD"/>
</g>
<g id="Group_3">
<path id="Vector_3" fill-rule="evenodd" clip-rule="evenodd" d="M107.491 0.354492C112.146 0.354492 116.8 0.354492 121.455 0.354492C122.271 1.15321 122.513 2.1229 122.182 3.26358C121.976 3.51973 121.733 3.71368 121.455 3.8454C118.253 3.79696 115.053 3.84546 111.855 3.99086C111.588 4.07184 111.394 4.2173 111.273 4.42722C109.853 5.42571 109.562 6.6863 110.4 8.20904C110.852 8.92427 111.53 9.36063 112.436 9.51813C113.598 9.56767 114.762 9.51921 115.927 9.37267C117.085 10.5508 117.085 11.7629 115.927 13.009C115.353 13.1532 114.772 13.2016 114.182 13.1545C113.304 13.1066 112.431 13.1551 111.564 13.2999C111.402 13.4112 111.305 13.5567 111.273 13.7363C110.39 14.2899 110.003 15.1141 110.109 16.209C110.037 17.1759 110.328 18.0001 110.982 18.6818C111.104 18.8917 111.297 19.0371 111.564 19.1181C114.956 19.2636 118.35 19.312 121.746 19.2636C123.005 20.776 122.714 21.9881 120.873 22.8999C116.606 23.0939 112.34 23.0939 108.073 22.8999C107.455 22.5736 106.922 22.1373 106.473 21.5909C105.995 15.4107 105.898 9.20459 106.182 2.97267C106.314 1.93263 106.75 1.0599 107.491 0.354492Z" fill="#85CFCC"/>
</g>
<g id="Group_4">
<path id="Vector_4" fill-rule="evenodd" clip-rule="evenodd" d="M132.8 0.354492C133.867 0.354492 134.933 0.354492 136 0.354492C138.475 4.32825 140.366 8.5949 141.673 13.1545C143.374 15.735 144.247 18.5471 144.291 21.5909C142.947 23.6608 141.396 23.7578 139.636 21.8818C138.696 20.3433 137.581 18.9373 136.291 17.6636C133.788 17.0723 131.751 17.7996 130.182 19.8454C129.355 21.2613 128.87 22.8128 128.727 24.4999C127.738 24.5458 126.768 24.4488 125.818 24.209C125.518 23.7984 125.324 23.3135 125.236 22.7545C126.634 15.9833 128.622 9.38934 131.2 2.97267C131.683 2.05652 132.217 1.18379 132.8 0.354492ZM132.8 7.62722C133.363 8.25224 133.993 8.83406 134.691 9.37267C135.285 8.8756 135.819 8.29378 136.291 7.62722C136.388 7.72418 136.485 7.82117 136.582 7.91813C135.913 8.72188 135.525 9.64307 135.418 10.6818C135.782 11.6155 136.122 12.5367 136.436 13.4454C135.921 12.703 135.339 12.0242 134.691 11.409C134.088 11.78 133.652 12.3134 133.382 13.009C133.14 13.2091 132.946 13.1606 132.8 12.8636C133.498 12.2439 133.886 11.4682 133.964 10.5363C133.731 9.492 133.343 8.52229 132.8 7.62722Z" fill="#87D0CD"/>
</g>
<g id="Group_5">
<path id="Vector_5" opacity="0.999" fill-rule="evenodd" clip-rule="evenodd" d="M1.89081 0.354492C4.89686 0.354492 7.90294 0.354492 10.909 0.354492C15.7138 1.81755 17.3138 5.01756 15.709 9.95449C15.2214 11.3153 14.3972 12.4304 13.2363 13.2999C11.2473 14.5372 9.2109 15.7008 7.12718 16.7909C6.31839 17.3181 5.59112 17.9484 4.94536 18.6818C4.28142 20.1674 3.74806 21.6704 3.34536 23.1909C2.23644 23.8037 1.26674 23.6582 0.436268 22.7545C0.350822 15.7651 0.447791 8.78329 0.727177 1.80904C0.90499 1.14734 1.29287 0.662495 1.89081 0.354492ZM4.7999 2.68177C5.69108 1.8071 6.75775 1.66164 7.9999 2.2454C9.32418 2.79637 10.4878 3.57212 11.4908 4.57267C11.1173 4.7716 10.7779 4.7231 10.4726 4.42722C9.94856 5.00258 9.36674 5.48741 8.72718 5.88177C7.02021 5.26143 6.48689 5.79478 7.12718 7.48177C7.679 7.80459 8.21233 7.85308 8.72718 7.62722C8.49442 8.62789 8.83382 9.45212 9.74536 10.0999C9.46882 10.3087 9.42035 10.5511 9.5999 10.8272C10.5757 11.251 10.915 11.9298 10.6181 12.8636C9.88581 13.2693 9.11007 13.5602 8.29081 13.7363C7.27403 13.3658 6.4013 12.784 5.67263 11.9909C5.47121 12.1437 5.32575 12.3376 5.23627 12.5727C4.68729 12.1287 4.39638 11.5469 4.36354 10.8272C4.02769 10.4655 3.63982 10.1746 3.1999 9.95449C3.15979 9.39234 3.30524 8.85902 3.63627 8.35449C2.57264 7.43784 2.47567 6.41966 3.34536 5.29995C3.25291 4.96619 3.05899 4.72377 2.76354 4.57267C3.77611 3.73043 4.79429 3.68194 5.81809 4.42722C5.96354 4.28177 6.109 4.13631 6.25445 3.99086C5.98934 3.28837 5.50449 2.85201 4.7999 2.68177Z" fill="#8BD1CE"/>
</g>
<g id="Group_6">
<path id="Vector_6" fill-rule="evenodd" clip-rule="evenodd" d="M55.4182 0.354492C55.9032 0.354492 56.3878 0.354492 56.8728 0.354492C57.4706 0.662495 57.8587 1.14734 58.0364 1.80904C57.7856 8.59356 57.6888 15.3814 57.7455 22.1727C57.6486 22.8515 57.2605 23.2394 56.5819 23.3363C55.6649 23.4938 54.9376 23.2029 54.4 22.4636C54.208 21.5391 53.9657 20.6663 53.6728 19.8454C51.9608 15.7574 49.1003 12.7513 45.0909 10.8272C44.7256 10.8704 44.3861 10.9673 44.0728 11.1181C43.6966 11.5085 43.4543 11.9934 43.3455 12.5727C43.2 15.8682 43.1515 19.1652 43.2 22.4636C42.8003 23.1789 42.1702 23.4698 41.3091 23.3363C40.8728 23.2878 40.4364 23.2394 40 23.1909C39.7813 22.9957 39.6841 22.7533 39.7091 22.4636C39.637 15.5742 39.7339 8.68939 40 1.80904C40.8251 0.609177 41.8915 0.366753 43.2 1.08176C45.9122 4.37552 48.8213 7.47854 51.9273 10.3909C52.3963 10.6004 52.8326 10.5519 53.2364 10.2454C53.5247 9.5741 53.767 8.89532 53.9637 8.20904C54.1371 5.80645 54.428 3.38222 54.8364 0.93631C55.0304 0.742371 55.2242 0.548432 55.4182 0.354492Z" fill="#81CECB"/>
</g>
<g id="Group_7">
<path id="Vector_7" fill-rule="evenodd" clip-rule="evenodd" d="M71.1271 0.354492C72.1938 0.354492 73.2603 0.354492 74.3271 0.354492C76.6509 1.15782 78.6386 2.5154 80.2907 4.42722C81.0861 6.22917 80.5528 7.3928 78.6907 7.91813C78.1674 7.89573 77.6824 7.75027 77.2362 7.48176C76.5153 6.45384 75.6426 5.6296 74.618 5.00904C74.1167 4.63083 73.4863 4.43688 72.7271 4.42722C72.0967 4.47571 71.4666 4.52418 70.8362 4.57267C70.5697 4.65366 70.3759 4.79912 70.2543 5.00904C66.7099 7.24709 65.4008 10.4471 66.3271 14.609C67.6271 18.9184 70.3908 20.4215 74.618 19.1181C76.4891 18.0422 77.2164 16.4422 76.7998 14.3181C75.619 13.8966 74.4068 13.5572 73.1634 13.2999C72.1857 11.7864 72.4766 10.6228 74.0362 9.80904C80.8973 9.01477 83.0791 11.8754 80.5816 18.3909C78.0594 22.729 74.3262 24.329 69.3816 23.1909C65.5588 21.9394 63.2315 19.3697 62.3998 15.4818C62.2223 13.6446 62.1255 11.8021 62.1089 9.95449C63.0226 4.77448 66.0286 1.57447 71.1271 0.354492Z" fill="#89D1CE"/>
</g>
<g id="Group_8">
<path id="Vector_8" opacity="0.735" fill-rule="evenodd" clip-rule="evenodd" d="M121.455 3.8453C120.784 4.29528 120.008 4.48923 119.127 4.42712C116.507 4.03951 113.889 4.03951 111.273 4.42712C111.395 4.2172 111.588 4.07175 111.855 3.99076C115.053 3.84536 118.253 3.79687 121.455 3.8453Z" fill="#BAE3E1"/>
</g>
<g id="Group_9">
<path id="Vector_9" opacity="0.481" fill-rule="evenodd" clip-rule="evenodd" d="M54.8361 0.936523C54.4277 3.38243 54.1368 5.80666 53.9634 8.20925C53.9151 6.17059 53.9634 4.13423 54.1089 2.10016C54.167 1.5708 54.4097 1.18292 54.8361 0.936523Z" fill="#C3E7E5"/>
</g>
<g id="Group_10">
<path id="Vector_10" opacity="0.165" fill-rule="evenodd" clip-rule="evenodd" d="M74.618 5.00906C73.1635 4.6212 71.7089 4.6212 70.2544 5.00906C70.376 4.79914 70.5697 4.65369 70.8362 4.5727C71.4666 4.52421 72.0967 4.47574 72.7271 4.42725C73.4864 4.4369 74.1168 4.63085 74.618 5.00906Z" fill="#D2EDEC"/>
</g>
<g id="Group_11">
<path id="Vector_11" opacity="0.727" fill-rule="evenodd" clip-rule="evenodd" d="M0.727219 1.80908C0.447833 8.78334 0.350865 15.7652 0.43631 22.7545C0.242371 21.9788 0.0484317 21.203 -0.145508 20.4273C-0.145508 20.0394 -0.145508 19.6515 -0.145508 19.2636C0.242371 15.2879 0.242371 11.3121 -0.145508 7.33635C-0.145508 6.65758 -0.145508 5.97877 -0.145508 5.29999C0.0196379 4.10683 0.310547 2.9432 0.727219 1.80908Z" fill="#C7E9E7"/>
</g>
<g id="Group_12">
<path id="Vector_12" opacity="0.714" fill-rule="evenodd" clip-rule="evenodd" d="M22.2546 5.00928C21.9127 7.10327 21.234 9.04264 20.2183 10.8275C20.7892 8.82257 21.4679 6.88317 22.2546 5.00928Z" fill="#CDEBEA"/>
</g>
<g id="Group_13">
<path id="Vector_13" opacity="0.384" fill-rule="evenodd" clip-rule="evenodd" d="M40.0001 1.80908C39.734 8.68943 39.6371 15.5743 39.7092 22.4636C39.2868 21.7807 39.0931 21.0049 39.1274 20.1364C39.3508 14.7094 39.4963 9.2791 39.5638 3.84545C39.6179 3.10781 39.7633 2.42902 40.0001 1.80908Z" fill="#D1ECEB"/>
</g>
<g id="Group_14">
<path id="Vector_14" opacity="0.549" fill-rule="evenodd" clip-rule="evenodd" d="M110.4 8.20898C112.167 9.22493 114.01 9.61282 115.927 9.37262C114.762 9.51915 113.598 9.56762 112.436 9.51808C111.53 9.36058 110.851 8.92421 110.4 8.20898Z" fill="#CAEAE8"/>
</g>
<g id="Group_15">
<path id="Vector_15" opacity="0.225" fill-rule="evenodd" clip-rule="evenodd" d="M62.1092 9.95459C62.1257 11.8022 62.2226 13.6447 62.4001 15.4819C61.8121 13.6585 61.7153 11.8161 62.1092 9.95459Z" fill="#E4F4F3"/>
</g>
<g id="Group_16">
<path id="Vector_16" opacity="0.255" fill-rule="evenodd" clip-rule="evenodd" d="M28.0725 10.2456C28.4967 10.9532 28.8361 11.7289 29.0907 12.5729C29.436 13.7313 28.9997 14.2162 27.7816 14.0274C27.0885 14.0679 26.5067 13.8739 26.0361 13.4456C26.9731 13.7578 27.8943 13.7578 28.7998 13.4456C28.5192 12.4179 28.2768 11.3512 28.0725 10.2456Z" fill="#D1EDEB"/>
</g>
<g id="Group_17">
<path id="Vector_17" opacity="0.01" fill-rule="evenodd" clip-rule="evenodd" d="M114.182 13.1546C113.256 13.394 112.286 13.588 111.273 13.7364C111.305 13.5568 111.402 13.4113 111.564 13.3C112.431 13.1551 113.304 13.1067 114.182 13.1546Z" fill="#EDF8F7"/>
</g>
<g id="Group_18">
<path id="Vector_18" opacity="0.349" fill-rule="evenodd" clip-rule="evenodd" d="M92.6543 13.1548C93.7982 13.7024 94.9618 13.7993 96.1452 13.4457C95.9026 13.8087 95.5148 14.0027 94.9816 14.0275C94.0431 14.0716 93.2672 13.7807 92.6543 13.1548Z" fill="#D6EEED"/>
</g>
<g id="Group_19">
<path id="Vector_19" opacity="0.286" fill-rule="evenodd" clip-rule="evenodd" d="M44.0726 11.1182C43.631 14.9233 43.3401 18.7051 43.1999 22.4636C43.1513 19.1652 43.1999 15.8682 43.3453 12.5727C43.4541 11.9934 43.6964 11.5086 44.0726 11.1182Z" fill="#CEEBEA"/>
</g>
<g id="Group_20">
<path id="Vector_20" opacity="0.688" fill-rule="evenodd" clip-rule="evenodd" d="M110.982 18.6816C113.84 19.0645 116.701 19.0645 119.564 18.6816C120.384 18.6548 121.112 18.8487 121.746 19.2635C118.35 19.3119 114.956 19.2634 111.564 19.118C111.297 19.037 111.104 18.8916 110.982 18.6816Z" fill="#C5E8E6"/>
</g>
<g id="Group_21">
<path id="Vector_21" opacity="0.89" fill-rule="evenodd" clip-rule="evenodd" d="M58.0366 1.80908C58.0325 7.93036 58.1294 14.1364 58.3275 20.4273C58.2987 21.0959 58.1047 21.6778 57.7457 22.1727C57.689 15.3815 57.7858 8.59361 58.0366 1.80908Z" fill="#C2E7E5"/>
</g>
<g id="Group_22">
<path id="Vector_22" opacity="0.728" fill-rule="evenodd" clip-rule="evenodd" d="M53.6727 19.8452C53.9656 20.6662 54.208 21.5389 54.4 22.4634C54.9376 23.2027 55.6648 23.4936 56.5818 23.3361C55.4539 23.8626 54.5329 23.5717 53.8181 22.4634C53.6733 21.596 53.6247 20.7233 53.6727 19.8452Z" fill="#CDEBE9"/>
</g>
<g id="Group_23">
<path id="Vector_23" opacity="0.814" fill-rule="evenodd" clip-rule="evenodd" d="M130.182 19.8452C129.757 21.5087 129.272 23.1572 128.727 24.7907C127.59 25.2807 126.62 25.0868 125.818 24.2089C126.768 24.4486 127.738 24.5456 128.727 24.4998C128.87 22.8126 129.355 21.2611 130.182 19.8452Z" fill="#C9E9E8"/>
</g>
<g id="Group_24">
<path id="Vector_24" opacity="0.255" fill-rule="evenodd" clip-rule="evenodd" d="M0.145508 30.609C48.1938 30.3181 96.2907 30.2212 144.436 30.3181C144.514 30.7832 144.417 31.171 144.146 31.4817C144.146 31.1908 144.146 30.8999 144.146 30.609C96.1455 30.609 48.1455 30.609 0.145508 30.609Z" fill="#F0C0C0"/>
</g>
<g id="Group_25">
<path id="Vector_25" opacity="0.945" fill-rule="evenodd" clip-rule="evenodd" d="M-0.145508 30.6089C-0.0485382 30.6089 0.0484317 30.6089 0.145401 30.6089C48.1454 30.6089 96.1454 30.6089 144.145 30.6089C144.145 30.8998 144.145 31.1907 144.145 31.4816C96.0767 31.8691 47.9799 31.8691 -0.145508 31.4816C-0.145508 31.1907 -0.145508 30.8998 -0.145508 30.6089Z" fill="#D54736"/>
</g>
<g id="Group_26">
<path id="Vector_26" opacity="0.058" fill-rule="evenodd" clip-rule="evenodd" d="M87.4182 37.8819C85.767 37.8336 84.1184 37.8822 82.4727 38.0273C82.2292 38.3214 82.1323 38.6609 82.1818 39.0455C81.8033 38.6429 81.8033 38.2065 82.1818 37.7364C83.9799 37.4982 85.7254 37.5465 87.4182 37.8819Z" fill="#EEF8F7"/>
</g>
<g id="Group_27">
<path id="Vector_27" opacity="0.995" fill-rule="evenodd" clip-rule="evenodd" d="M111.855 37.5911C112.92 38.4144 112.92 39.2386 111.855 40.0639C114.014 41.5775 114.111 43.2258 112.146 45.0093C110.606 45.5824 109.2 45.3401 107.927 44.282C107.249 42.9759 107.394 41.8122 108.364 40.7911C108.834 40.6346 109.319 40.5378 109.818 40.5002C109.838 40.9247 109.741 41.3124 109.527 41.6639C108.757 43.3447 109.339 43.9751 111.273 43.5548C111.585 43.3398 111.779 43.0489 111.855 42.682C111.637 41.9341 111.249 41.3037 110.691 40.7911C109.469 39.9664 109.275 38.9482 110.109 37.7366C110.683 37.5926 111.265 37.544 111.855 37.5911ZM110.691 40.7911C111.249 41.3037 111.637 41.9341 111.855 42.682C111.779 43.0489 111.585 43.3398 111.273 43.5548C109.339 43.9751 108.757 43.3447 109.527 41.6639C109.915 41.373 110.303 41.082 110.691 40.7911Z" fill="#9DD8D5"/>
</g>
<g id="Group_28">
<path id="Vector_28" opacity="0.999" fill-rule="evenodd" clip-rule="evenodd" d="M51.6364 37.3001C52.3355 37.269 52.8687 37.5599 53.2364 38.1728C54.0297 39.9704 54.7084 41.813 55.2728 43.7001C56.6383 46.6578 58.4806 47.0456 60.8 44.8637C61.7795 45.8208 61.6341 46.645 60.3637 47.3365C56.9545 48.2971 54.6755 47.0851 53.5273 43.7001C53.0374 43.2445 52.4556 42.9536 51.7819 42.8274C51.2495 43.4191 50.7163 44.0495 50.1819 44.7183C49.9058 44.8978 49.6635 44.8495 49.4546 44.5728C49.6699 42.0053 50.3971 39.5811 51.6364 37.3001ZM51.9273 40.2092C52.4175 40.4082 52.7084 40.796 52.8 41.3728C52.5749 41.7251 52.3326 41.7251 52.0728 41.3728C51.9302 40.9967 51.8816 40.6086 51.9273 40.2092Z" fill="#9ED8D6"/>
</g>
<g id="Group_29">
<path id="Vector_29" opacity="0.999" fill-rule="evenodd" clip-rule="evenodd" d="M56.5819 37.5909C60.5999 37.5818 62.1999 39.5213 61.3819 43.409C60.5636 44.5695 59.4485 45.0544 58.0364 44.8636C57.3793 44.8543 56.7492 44.7571 56.1455 44.5727C55.9515 42.5363 55.9515 40.4999 56.1455 38.4636C56.2948 38.1648 56.4402 37.8739 56.5819 37.5909ZM58.0364 39.3363C59.6568 39.7637 60.2872 40.8301 59.9273 42.5363C59.0709 43.6517 58.2465 43.6517 57.4546 42.5363C57.6489 41.4608 57.843 40.3943 58.0364 39.3363Z" fill="#9FD9D6"/>
</g>
<g id="Group_30">
<path id="Vector_30" opacity="0.998" fill-rule="evenodd" clip-rule="evenodd" d="M79.8544 37.882C80.218 37.9044 80.4603 38.0985 80.5816 38.4639C80.7271 40.4979 80.7754 42.5343 80.7271 44.5729C80.3757 44.9459 79.9876 44.9459 79.5634 44.5729C79.2682 42.8045 78.2986 41.6409 76.6544 41.082C76.4749 41.1143 76.3294 41.2112 76.218 41.3729C76.0728 42.4353 76.0245 43.5018 76.0725 44.5729C75.7816 44.5729 75.4907 44.5729 75.1998 44.5729C74.8638 42.4915 74.8152 40.3583 75.0544 38.1729C75.384 37.6752 75.8203 37.5297 76.3634 37.7366C77.0846 38.7975 77.9573 39.7185 78.9816 40.5002C79.1393 39.5443 79.4302 38.6716 79.8544 37.882Z" fill="#94D4D2"/>
</g>
<g id="Group_31">
<path id="Vector_31" opacity="0.999" fill-rule="evenodd" clip-rule="evenodd" d="M96.7274 37.3C100.506 37.1028 101.67 38.7513 100.218 42.2454C100.5 43.0998 100.695 43.9726 100.8 44.8636C100.28 44.9465 99.795 44.8497 99.3456 44.5727C98.3812 42.3257 97.6057 42.3257 97.0183 44.5727C96.6305 44.9605 96.2425 44.9605 95.8547 44.5727C95.5259 42.5509 95.4774 40.5145 95.7092 38.4636C95.9099 37.9254 96.2491 37.5374 96.7274 37.3ZM97.3092 39.0454C98.8784 38.7702 99.3633 39.3521 98.7638 40.7909C98.3257 41.1537 97.8893 41.1537 97.4547 40.7909C97.3107 40.2169 97.2621 39.6351 97.3092 39.0454Z" fill="#A0D9D7"/>
</g>
<g id="Group_32">
<path id="Vector_32" opacity="0.998" fill-rule="evenodd" clip-rule="evenodd" d="M121.164 37.2998C121.85 37.4965 122.529 37.7388 123.2 38.0271C124.071 39.1512 123.877 40.0725 122.618 40.7907C122.448 40.7299 122.302 40.6328 122.182 40.4998C122.432 39.0953 121.851 38.7075 120.437 39.3362C119.531 41.351 119.482 43.3874 120.291 45.4453C121.128 46.3069 121.807 46.2101 122.327 45.1544C121.826 43.9581 122.214 43.5218 123.491 43.8453C124.373 45.8933 123.694 47.1055 121.455 47.4816C120.274 47.4973 119.353 47.0127 118.691 46.0271C117.631 43.4581 117.728 40.9368 118.982 38.4634C119.638 37.8819 120.365 37.4941 121.164 37.2998Z" fill="#A2DAD7"/>
</g>
<g id="Group_33">
<path id="Vector_33" opacity="0.998" fill-rule="evenodd" clip-rule="evenodd" d="M126.109 37.8817C126.397 39.4744 126.494 41.123 126.4 42.8271C126.917 43.3636 127.596 43.5573 128.436 43.4089C129.605 43.2167 129.993 43.6044 129.6 44.5726C128.021 44.6546 126.47 44.5577 124.945 44.2817C124.897 42.243 124.945 40.2066 125.091 38.1726C125.385 37.9291 125.724 37.8322 126.109 37.8817Z" fill="#90D3D0"/>
</g>
<g id="Group_34">
<path id="Vector_34" opacity="0.997" fill-rule="evenodd" clip-rule="evenodd" d="M137.163 37.5907C138.235 37.5427 139.301 37.591 140.363 37.7361C141.351 38.2336 141.788 39.0577 141.673 40.2089C143.215 41.3795 143.361 42.6886 142.109 44.1361C140.328 45.0324 138.534 45.081 136.727 44.2816C136.431 42.0015 136.576 39.7711 137.163 37.5907ZM138.327 39.0452C140.618 39.2841 140.618 39.6719 138.327 40.2089C138.327 39.8211 138.327 39.433 138.327 39.0452ZM139.491 41.3725C141.095 41.3647 141.483 41.9951 140.654 43.2634C139.956 43.4703 139.278 43.4217 138.618 43.118C138.141 42.1425 138.432 41.5607 139.491 41.3725Z" fill="#A1D9D7"/>
</g>
<g id="Group_35">
<path id="Vector_35" opacity="0.997" fill-rule="evenodd" clip-rule="evenodd" d="M62.3998 37.5909C62.9496 37.5319 63.386 37.7256 63.7089 38.1727C63.9242 39.5231 64.3605 40.7839 65.018 41.9545C65.6321 40.6292 66.1656 39.2715 66.618 37.8818C67.0058 37.494 67.3938 37.494 67.7816 37.8818C67.6042 39.8745 67.1192 41.814 66.3271 43.7C65.3575 45.2514 64.3876 45.2514 63.418 43.7C62.9819 41.956 62.5455 40.2105 62.1089 38.4636C62.1627 38.1483 62.2596 37.8574 62.3998 37.5909Z" fill="#A0D9D7"/>
</g>
<g id="Group_36">
<path id="Vector_36" opacity="0.997" fill-rule="evenodd" clip-rule="evenodd" d="M69.9635 37.5908C70.8464 37.8561 71.7192 37.8561 72.5817 37.5908C73.761 37.6452 74.1488 38.1785 73.7453 39.1908C72.6786 39.2877 71.6121 39.3849 70.5453 39.4817C70.3018 39.7758 70.205 40.1153 70.2544 40.4999C70.8441 40.4528 71.4259 40.5014 71.9999 40.6454C72.3626 41.08 72.3626 41.5163 71.9999 41.9545C71.4079 42.1118 70.8261 42.3059 70.2544 42.5363C70.3152 42.7067 70.4124 42.8522 70.5453 42.9726C71.5149 43.0695 72.4848 43.1667 73.4544 43.2635C74.1826 43.7825 74.1826 44.2675 73.4544 44.7181C72.0968 44.9121 70.7394 44.9121 69.3817 44.7181C69.2362 44.5726 69.0908 44.4272 68.9453 44.2817C68.7513 42.3422 68.7513 40.403 68.9453 38.4635C69.2319 38.0813 69.5714 37.7904 69.9635 37.5908Z" fill="#9DD8D5"/>
</g>
<g id="Group_37">
<path id="Vector_37" opacity="0.999" fill-rule="evenodd" clip-rule="evenodd" d="M87.4183 37.8818C87.9548 38.0866 88.1002 38.4744 87.8547 39.0455C87.176 39.2395 86.497 39.4332 85.8183 39.6273C85.7215 41.2759 85.6243 42.9242 85.5274 44.5727C85.0425 44.9605 84.5578 44.9605 84.0729 44.5727C83.8448 43.0056 83.8931 41.4542 84.2183 39.9182C83.6013 39.4766 82.9226 39.1857 82.182 39.0455C82.1325 38.6609 82.2294 38.3214 82.4729 38.0273C84.1185 37.8821 85.7671 37.8335 87.4183 37.8818Z" fill="#9DD8D5"/>
</g>
<g id="Group_38">
<path id="Vector_38" opacity="0.998" fill-rule="evenodd" clip-rule="evenodd" d="M89.1634 37.8819C89.548 37.8324 89.8875 37.9293 90.1816 38.1728C90.3262 38.9426 90.3748 39.7184 90.327 40.5001C90.4836 41.2823 90.6776 42.0582 90.9089 42.8274C91.3071 43.2998 91.7921 43.4452 92.3634 43.2637C92.9321 42.2868 93.0293 41.2687 92.6543 40.2092C92.7812 39.4298 92.9266 38.6543 93.0907 37.8819C93.6545 37.4863 94.1391 37.5831 94.5452 38.1728C94.5545 39.8188 94.4577 41.4674 94.2543 43.1183C93.2966 45.0214 91.8907 45.4578 90.0361 44.4274C89.5878 43.968 89.2484 43.4345 89.018 42.8274C88.78 41.1258 88.8283 39.4775 89.1634 37.8819Z" fill="#9CD8D5"/>
</g>
<g id="Group_39">
<path id="Vector_39" opacity="0.06" fill-rule="evenodd" clip-rule="evenodd" d="M89.1636 37.882C89.5662 37.5035 90.0026 37.5035 90.4727 37.882C90.7068 38.8117 90.6583 39.6845 90.3272 40.5002C90.3749 39.7185 90.3263 38.9427 90.1818 38.1729C89.8876 37.9294 89.5482 37.8325 89.1636 37.882Z" fill="#F2FAF9"/>
</g>
<g id="Group_40">
<path id="Vector_40" opacity="0.997" fill-rule="evenodd" clip-rule="evenodd" d="M102.836 37.5908C103.999 37.9254 105.162 37.9739 106.327 37.7363C107.03 38.0691 107.224 38.5537 106.909 39.1908C105.75 39.336 104.586 39.3846 103.418 39.3363C103.418 39.7241 103.418 40.1121 103.418 40.4999C104.008 40.4528 104.59 40.5014 105.164 40.6454C105.448 41.9594 104.867 42.4926 103.418 42.2454C103.418 42.5363 103.418 42.8272 103.418 43.1181C104.489 43.0701 105.556 43.1184 106.618 43.2635C107.491 43.9422 107.394 44.4272 106.327 44.7181C104.896 44.9514 103.49 44.9028 102.109 44.5726C101.648 42.6651 101.551 40.7257 101.818 38.7545C102.019 38.2163 102.358 37.8282 102.836 37.5908Z" fill="#A4DBD8"/>
</g>
<g id="Group_41">
<path id="Vector_41" opacity="0.998" fill-rule="evenodd" clip-rule="evenodd" d="M130.473 37.5911C130.857 37.5417 131.197 37.6386 131.491 37.8821C131.534 39.5545 131.728 41.2028 132.073 42.8275C132.713 43.5056 133.294 43.5056 133.818 42.8275C133.915 41.373 134.012 39.9184 134.109 38.4639C134.365 37.6359 134.85 37.4419 135.564 37.8821C135.758 39.5306 135.758 41.1789 135.564 42.8275C134.31 45.4445 132.662 45.7354 130.618 43.7002C129.702 41.6764 129.653 39.64 130.473 37.5911Z" fill="#9CD7D5"/>
</g>
<g id="Group_42">
<path id="Vector_42" opacity="0.18" fill-rule="evenodd" clip-rule="evenodd" d="M126.109 37.882C125.724 37.8325 125.385 37.9294 125.091 38.1729C124.945 40.2069 124.897 42.2433 124.945 44.282C124.609 42.2005 124.561 40.0673 124.8 37.882C125.27 37.5035 125.706 37.5035 126.109 37.882Z" fill="#DDF1F0"/>
</g>
<g id="Group_43">
<path id="Vector_43" opacity="0.02" fill-rule="evenodd" clip-rule="evenodd" d="M111.855 37.5908C111.265 37.5437 110.683 37.5922 110.109 37.7362C109.275 38.9479 109.469 39.9661 110.691 40.7908C110.303 41.0817 109.915 41.3726 109.527 41.6635C109.741 41.3121 109.838 40.9243 109.818 40.4999C109.319 40.5374 108.834 40.6343 108.364 40.7908C108.61 40.3643 108.998 40.1217 109.527 40.0635C108.852 39.155 108.949 38.2823 109.818 37.4453C110.557 37.2138 111.236 37.2624 111.855 37.5908Z" fill="#DDF1F0"/>
</g>
<g id="Group_44">
<path id="Vector_44" opacity="0.38" fill-rule="evenodd" clip-rule="evenodd" d="M79.8545 37.8818C80.1576 37.5062 80.4968 37.5062 80.8727 37.8818C81.1118 40.164 81.0635 42.3941 80.7272 44.5727C80.7755 42.534 80.7272 40.4976 80.5818 38.4636C80.4605 38.0982 80.2181 37.9042 79.8545 37.8818Z" fill="#CFEBEA"/>
</g>
<g id="Group_45">
<path id="Vector_45" opacity="0.026" fill-rule="evenodd" clip-rule="evenodd" d="M126.4 42.8271C127.113 42.9915 127.792 43.1855 128.436 43.409C127.596 43.5573 126.917 43.3636 126.4 42.8271Z" fill="#EEF8F7"/>
</g>
<g id="Group_46">
<path id="Vector_46" opacity="0.78" fill-rule="evenodd" clip-rule="evenodd" d="M76.6547 41.082C76.703 42.2497 76.6544 43.4134 76.5093 44.5729C76.0392 44.9514 75.6028 44.9514 75.2002 44.5729C75.4911 44.5729 75.782 44.5729 76.0729 44.5729C76.0249 43.5018 76.0732 42.4353 76.2184 41.3729C76.3298 41.2112 76.4752 41.1143 76.6547 41.082Z" fill="#C1E6E4"/>
</g>
<g id="Group_47">
<path id="Vector_47" opacity="0.337" fill-rule="evenodd" clip-rule="evenodd" d="M124.945 44.2817C126.47 44.5578 128.021 44.6547 129.6 44.5726C128.879 44.7658 128.103 44.8627 127.273 44.8636C126.374 44.8572 125.598 44.6634 124.945 44.2817Z" fill="#D1ECEB"/>
</g>
</g>
<defs>
<clipPath id="clip0_857_41482">
<rect width="145.455" height="48" fill="white" transform="translate(0 0.5)"/>
</clipPath>
</defs>
</svg>
