<svg width="34" height="24" viewBox="0 0 34 24" fill="none" xmlns="http://www.w3.org/2000/svg">
<g id="Payment method icon">
<rect x="0.5" y="0.5" width="33" height="23" rx="3.5" fill="white"/>
<g id="Mastercard">
<path id="Left" fill-rule="evenodd" clip-rule="evenodd" d="M17.179 16.8307C15.9949 17.8288 14.459 18.4312 12.7807 18.4312C9.03582 18.4312 6 15.4316 6 11.7312C6 8.03094 9.03582 5.03125 12.7807 5.03125C14.459 5.03125 15.9949 5.63375 17.179 6.63179C18.363 5.63375 19.8989 5.03125 21.5773 5.03125C25.3221 5.03125 28.358 8.03094 28.358 11.7312C28.358 15.4316 25.3221 18.4312 21.5773 18.4312C19.8989 18.4312 18.363 17.8288 17.179 16.8307Z" fill="#ED0006"/>
<path id="Right" fill-rule="evenodd" clip-rule="evenodd" d="M17.1797 16.8307C18.6376 15.6018 19.5621 13.7732 19.5621 11.7312C19.5621 9.68929 18.6376 7.86069 17.1797 6.63179C18.3637 5.63375 19.8996 5.03125 21.578 5.03125C25.3228 5.03125 28.3587 8.03094 28.3587 11.7312C28.3587 15.4316 25.3228 18.4312 21.578 18.4312C19.8996 18.4312 18.3637 17.8288 17.1797 16.8307Z" fill="#F9A000"/>
<path id="Middle" fill-rule="evenodd" clip-rule="evenodd" d="M17.1793 16.8317C18.6372 15.6028 19.5616 13.7742 19.5616 11.7322C19.5616 9.69031 18.6372 7.86172 17.1793 6.63281C15.7213 7.86172 14.7969 9.69031 14.7969 11.7322C14.7969 13.7742 15.7213 15.6028 17.1793 16.8317Z" fill="#FF5E00"/>
</g>
<rect x="0.5" y="0.5" width="33" height="23" rx="3.5" stroke="#E9E8E8"/>
</g>
</svg>
