<svg width="16" height="16" viewBox="0 0 16 16" fill="none" xmlns="http://www.w3.org/2000/svg">
<g id="vuesax/bold/add-circle">
<g id="add-circle">
<path id="Vector" d="M7.9987 1.33337C4.32536 1.33337 1.33203 4.32671 1.33203 8.00004C1.33203 11.6734 4.32536 14.6667 7.9987 14.6667C11.672 14.6667 14.6654 11.6734 14.6654 8.00004C14.6654 4.32671 11.672 1.33337 7.9987 1.33337ZM10.6654 8.50004H8.4987V10.6667C8.4987 10.94 8.27203 11.1667 7.9987 11.1667C7.72536 11.1667 7.4987 10.94 7.4987 10.6667V8.50004H5.33203C5.0587 8.50004 4.83203 8.27337 4.83203 8.00004C4.83203 7.72671 5.0587 7.50004 5.33203 7.50004H7.4987V5.33337C7.4987 5.06004 7.72536 4.83337 7.9987 4.83337C8.27203 4.83337 8.4987 5.06004 8.4987 5.33337V7.50004H10.6654C10.9387 7.50004 11.1654 7.72671 11.1654 8.00004C11.1654 8.27337 10.9387 8.50004 10.6654 8.50004Z" fill="#979A9B"/>
</g>
</g>
</svg>
