<svg width="24" height="24" viewBox="0 0 24 24" fill="none" xmlns="http://www.w3.org/2000/svg">
<g id="vuesax/bold/arrow-3">
<g id="arrow-3">
<path id="Vector" d="M6.55253 2.82403L6.55301 2.82355C6.60031 2.77625 6.66357 2.75 6.72945 2.75C6.7366 2.75 6.74427 2.75071 6.75445 2.75287C6.7594 2.75392 6.76529 2.75538 6.77241 2.75748C6.80104 2.77118 6.82886 2.78132 6.85479 2.78884C6.87952 2.80228 6.9006 2.81826 6.9159 2.83355L10.6222 6.53985C10.7257 6.6493 10.7167 6.8056 10.6259 6.89645C10.5746 6.94774 10.514 6.97 10.4495 6.97C10.3849 6.97 10.3243 6.94774 10.273 6.89645L7.83301 4.45645L6.97945 3.60289V4.81V21C6.97945 21.1339 6.86331 21.25 6.72945 21.25C6.5956 21.25 6.47945 21.1339 6.47945 21V4.8V3.59289L5.6259 4.44645L3.1759 6.89645C3.08116 6.99118 2.91774 6.99118 2.82301 6.89645C2.72834 6.80178 2.72827 6.63854 2.82279 6.54377C2.82286 6.5437 2.82293 6.54362 2.82301 6.54355L6.55253 2.82403Z" fill="#646768" stroke="#646768"/>
<path id="Vector_2" d="M17.5202 19.2V20.4071L18.3738 19.5536L20.8238 17.1036C20.9185 17.0088 21.0819 17.0088 21.1767 17.1036C21.2675 17.1944 21.2765 17.3507 21.173 17.4602L17.4567 21.1764C17.4094 21.2237 17.3461 21.25 17.2802 21.25C17.2669 21.25 17.2476 21.2476 17.2244 21.2412C17.1968 21.2281 17.17 21.2184 17.1449 21.2112C17.1202 21.1977 17.0991 21.1817 17.0838 21.1664L13.3738 17.4564C13.279 17.3617 13.279 17.1983 13.3738 17.1036C13.4685 17.0088 13.6319 17.0088 13.7267 17.1036L16.1667 19.5436L17.0202 20.3971V19.19V3C17.0202 2.86614 17.1364 2.75 17.2702 2.75C17.4041 2.75 17.5202 2.86614 17.5202 3V19.2Z" fill="#646768" stroke="#646768"/>
</g>
</g>
</svg>
