<svg width="18" height="18" viewBox="0 0 18 18" fill="none" xmlns="http://www.w3.org/2000/svg">
<g id="Bank Carrd time 1">
<path id="Vector" fill-rule="evenodd" clip-rule="evenodd" d="M2.8274 3.16114C3.45961 2.48301 4.35787 2.10645 5.41114 2.10645H12.9638C14.0193 2.10645 14.9179 2.4828 15.5497 3.1614C16.1774 3.83547 16.5 4.76206 16.5 5.79365V7.98645C16.5 8.29718 16.2481 8.54895 15.9375 8.54895C15.6269 8.54895 15.375 8.29718 15.375 7.98645V5.79365C15.375 4.99435 15.1274 4.3586 14.7264 3.92804C14.3297 3.50201 13.7414 3.23145 12.9638 3.23145H5.41114C4.63645 3.23145 4.04789 3.50179 3.65027 3.92829C3.24857 4.35917 3 4.99501 3 5.79365V10.7347C3 11.5343 3.2477 12.1701 3.64855 12.6005C4.0452 13.0264 4.63346 13.2968 5.41114 13.2968H7.89075C8.2014 13.2968 8.45325 13.5487 8.45325 13.8593C8.45325 14.17 8.2014 14.4218 7.89075 14.4218H5.41114C4.35576 14.4218 3.45719 14.0458 2.82528 13.3672C2.19758 12.6932 1.875 11.7665 1.875 10.7347V5.79365C1.875 4.7614 2.19928 3.83489 2.8274 3.16114Z" fill="#B1B3B4"/>
<path id="Vector_2" fill-rule="evenodd" clip-rule="evenodd" d="M1.875 6.6416C1.875 6.33094 2.12684 6.0791 2.4375 6.0791H15.9375C16.2481 6.0791 16.5 6.33094 16.5 6.6416C16.5 6.95226 16.2481 7.2041 15.9375 7.2041H2.4375C2.12684 7.2041 1.875 6.95226 1.875 6.6416Z" fill="#B1B3B4"/>
<path id="Vector_3" fill-rule="evenodd" clip-rule="evenodd" d="M13.0215 10.2129C11.7642 10.2129 10.7446 11.2327 10.7446 12.4905C10.7446 13.7482 11.7642 14.7681 13.0215 14.7681C14.2797 14.7681 15.2991 13.7481 15.2991 12.4905C15.2991 11.2329 14.2797 10.2129 13.0215 10.2129ZM9.61963 12.4905C9.61963 10.6118 11.1424 9.08789 13.0215 9.08789C14.9011 9.08789 16.4241 10.6117 16.4241 12.4905C16.4241 14.3692 14.9011 15.8931 13.0215 15.8931C11.1424 15.8931 9.61963 14.3692 9.61963 12.4905Z" fill="#B1B3B4"/>
<path id="Vector_4" fill-rule="evenodd" clip-rule="evenodd" d="M13.0073 10.9775C13.318 10.9775 13.5698 11.2294 13.5698 11.54V12.3753L14.1934 12.748C14.4601 12.9074 14.5471 13.2527 14.3877 13.5194C14.2284 13.7861 13.883 13.8731 13.6163 13.7137L12.7188 13.1774C12.5488 13.0758 12.4448 12.8924 12.4448 12.6945V11.54C12.4448 11.2294 12.6967 10.9775 13.0073 10.9775Z" fill="#B1B3B4"/>
</g>
</svg>
