<svg width="21" height="21" viewBox="0 0 21 21" fill="none" xmlns="http://www.w3.org/2000/svg">
<g id="vuesax/linear/book">
<g id="book">
<path id="Vector" d="M18.8327 14.45V4.39168C18.8327 3.39168 18.016 2.65001 17.0243 2.73335H16.9744C15.2244 2.88335 12.566 3.77502 11.0827 4.70835L10.941 4.80001C10.6993 4.95001 10.2993 4.95001 10.0577 4.80001L9.84935 4.67502C8.36602 3.75002 5.71602 2.86668 3.96602 2.72501C2.97435 2.64168 2.16602 3.39168 2.16602 4.38335V14.45C2.16602 15.25 2.81602 16 3.61602 16.1L3.85768 16.1333C5.66602 16.375 8.45768 17.2917 10.0577 18.1667L10.091 18.1833C10.316 18.3083 10.6743 18.3083 10.891 18.1833C12.491 17.3 15.291 16.375 17.1077 16.1333L17.3827 16.1C18.1827 16 18.8327 15.25 18.8327 14.45Z" stroke="#309C98" stroke-linecap="round" stroke-linejoin="round"/>
<path id="Vector_2" d="M10.5 5.07501V17.575" stroke="#309C98" stroke-linecap="round" stroke-linejoin="round"/>
<path id="Vector_3" d="M6.95898 7.57501H5.08398" stroke="#309C98" stroke-linecap="round" stroke-linejoin="round"/>
<path id="Vector_4" d="M7.58398 10.075H5.08398" stroke="#309C98" stroke-linecap="round" stroke-linejoin="round"/>
</g>
</g>
</svg>
