<svg width="20" height="20" viewBox="0 0 20 20" fill="none" xmlns="http://www.w3.org/2000/svg">
<path d="M10.625 13.2676H11.1667C11.7083 13.2676 12.1583 12.7842 12.1583 12.2009C12.1583 11.4759 11.9 11.3342 11.475 11.1842L10.6333 10.8926V13.2676H10.625Z" fill="#121617"/>
<path d="M9.97441 1.584C5.3744 1.60067 1.6494 5.34233 1.66607 9.94233C1.68274 14.5423 5.4244 18.2673 10.0244 18.2507C14.6244 18.234 18.3494 14.4923 18.3327 9.89233C18.3161 5.29233 14.5744 1.57567 9.97441 1.584ZM11.8827 10.0007C12.5327 10.2257 13.4077 10.709 13.4077 12.2007C13.4077 13.484 12.3994 14.5173 11.1661 14.5173H10.6244V15.0007C10.6244 15.3423 10.3411 15.6257 9.9994 15.6257C9.65774 15.6257 9.3744 15.3423 9.3744 15.0007V14.5173H9.07441C7.70774 14.5173 6.5994 13.3673 6.5994 11.9507C6.5994 11.609 6.88274 11.3257 7.2244 11.3257C7.56607 11.3257 7.8494 11.609 7.8494 11.9507C7.8494 12.6757 8.39941 13.2673 9.07441 13.2673H9.3744V10.4507L8.11607 10.0007C7.46607 9.77566 6.59107 9.29233 6.59107 7.80066C6.59107 6.51733 7.59941 5.484 8.83274 5.484H9.3744V5.00066C9.3744 4.659 9.65774 4.37566 9.9994 4.37566C10.3411 4.37566 10.6244 4.659 10.6244 5.00066V5.484H10.9244C12.2911 5.484 13.3994 6.634 13.3994 8.05066C13.3994 8.39233 13.1161 8.67566 12.7744 8.67566C12.4327 8.67566 12.1494 8.39233 12.1494 8.05066C12.1494 7.32566 11.5994 6.734 10.9244 6.734H10.6244V9.55066L11.8827 10.0007Z" fill="#646768"/>
<path d="M7.84961 7.80742C7.84961 8.53242 8.10794 8.67409 8.53294 8.82409L9.37461 9.11576V6.73242H8.83294C8.29128 6.73242 7.84961 7.21576 7.84961 7.80742Z" fill="#646768"/>
</svg>
