<svg width="25" height="24" viewBox="0 0 25 24" fill="none" xmlns="http://www.w3.org/2000/svg">
<g id="Frame" clip-path="url(#clip0_3125_77040)">
<path id="Vector" d="M22.8335 10.5H20.1438L16.0835 6.4397C15.9447 6.2998 15.7795 6.18889 15.5975 6.11341C15.4155 6.03792 15.2202 5.99938 15.0232 6.00001H4.48475C4.23837 6.00046 3.99589 6.0616 3.77875 6.17802C3.56161 6.29444 3.37649 6.46256 3.23975 6.66751L0.459121 10.8338C0.37742 10.9572 0.333741 11.102 0.333496 11.25L0.333496 15.75C0.333496 16.1478 0.491531 16.5294 0.772836 16.8107C1.05414 17.092 1.43567 17.25 1.8335 17.25H3.42725C3.59247 17.8953 3.96777 18.4673 4.49398 18.8757C5.02019 19.2842 5.66737 19.5059 6.3335 19.5059C6.99962 19.5059 7.64681 19.2842 8.17301 18.8757C8.69922 18.4673 9.07452 17.8953 9.23975 17.25H15.4272C15.5925 17.8953 15.9678 18.4673 16.494 18.8757C17.0202 19.2842 17.6674 19.5059 18.3335 19.5059C18.9996 19.5059 19.6468 19.2842 20.173 18.8757C20.6992 18.4673 21.0745 17.8953 21.2397 17.25H22.8335C23.2313 17.25 23.6129 17.092 23.8942 16.8107C24.1755 16.5294 24.3335 16.1478 24.3335 15.75V12C24.3335 11.6022 24.1755 11.2207 23.8942 10.9393C23.6129 10.658 23.2313 10.5 22.8335 10.5ZM4.48475 7.50001H15.0232L18.0232 10.5H2.48975L4.48475 7.50001ZM6.3335 18C6.03682 18 5.74681 17.912 5.50014 17.7472C5.25347 17.5824 5.06121 17.3481 4.94768 17.074C4.83415 16.7999 4.80444 16.4983 4.86232 16.2074C4.9202 15.9164 5.06306 15.6491 5.27284 15.4393C5.48261 15.2296 5.74989 15.0867 6.04086 15.0288C6.33183 14.971 6.63343 15.0007 6.90752 15.1142C7.18161 15.2277 7.41588 15.42 7.5807 15.6667C7.74552 15.9133 7.8335 16.2033 7.8335 16.5C7.8335 16.8978 7.67546 17.2794 7.39416 17.5607C7.11285 17.842 6.73132 18 6.3335 18ZM18.3335 18C18.0368 18 17.7468 17.912 17.5001 17.7472C17.2535 17.5824 17.0612 17.3481 16.9477 17.074C16.8341 16.7999 16.8044 16.4983 16.8623 16.2074C16.9202 15.9164 17.0631 15.6491 17.2728 15.4393C17.4826 15.2296 17.7499 15.0867 18.0409 15.0288C18.3318 14.971 18.6334 15.0007 18.9075 15.1142C19.1816 15.2277 19.4159 15.42 19.5807 15.6667C19.7455 15.9133 19.8335 16.2033 19.8335 16.5C19.8335 16.8978 19.6755 17.2794 19.3942 17.5607C19.1129 17.842 18.7313 18 18.3335 18Z" fill="#121617"/>
</g>
<defs>
<clipPath id="clip0_3125_77040">
<rect width="24" height="24" fill="white" transform="translate(0.333496)"/>
</clipPath>
</defs>
</svg>
