<svg width="25" height="24" viewBox="0 0 25 24" fill="none" xmlns="http://www.w3.org/2000/svg">
<g id="Frame">
<path id="Vector" d="M20.9165 3.75045V21.0005C20.9165 21.1994 20.8375 21.3901 20.6968 21.5308C20.5562 21.6714 20.3654 21.7505 20.1665 21.7505C19.9676 21.7505 19.7768 21.6714 19.6362 21.5308C19.4955 21.3901 19.4165 21.1994 19.4165 21.0005V16.5005H14.9165C14.7176 16.5005 14.5268 16.4214 14.3862 16.2808C14.2455 16.1401 14.1665 15.9494 14.1665 15.7505C14.2013 13.9539 14.4282 12.1662 14.8434 10.418C15.7603 6.62201 17.4984 4.07764 19.8712 3.06139C19.9852 3.01253 20.1096 2.99274 20.2332 3.00377C20.3568 3.01481 20.4757 3.05633 20.5793 3.12461C20.6829 3.1929 20.7679 3.28581 20.8268 3.39504C20.8856 3.50426 20.9164 3.62638 20.9165 3.75045ZM11.9062 3.62764C11.8915 3.52916 11.8574 3.43459 11.8057 3.34944C11.7541 3.2643 11.686 3.19029 11.6055 3.13173C11.525 3.07316 11.4336 3.03122 11.3367 3.00834C11.2398 2.98547 11.1393 2.98212 11.0411 2.99849C10.9429 3.01485 10.8489 3.05062 10.7647 3.10369C10.6804 3.15675 10.6076 3.22607 10.5504 3.30758C10.4932 3.3891 10.4528 3.48118 10.4316 3.57846C10.4104 3.67575 10.4088 3.77628 10.4268 3.8742L11.1562 8.25045H8.9165V3.75045C8.9165 3.55154 8.83749 3.36077 8.69683 3.22012C8.55618 3.07947 8.36542 3.00045 8.1665 3.00045C7.96759 3.00045 7.77683 3.07947 7.63617 3.22012C7.49552 3.36077 7.4165 3.55154 7.4165 3.75045V8.25045H5.17682L5.90619 3.8742C5.92424 3.77628 5.9226 3.67575 5.90138 3.57846C5.88017 3.48118 5.83979 3.3891 5.78261 3.30758C5.72543 3.22607 5.65259 3.15675 5.56834 3.10369C5.4841 3.05062 5.39012 3.01485 5.29191 2.99849C5.19369 2.98212 5.0932 2.98547 4.9963 3.00834C4.89939 3.03122 4.80801 3.07316 4.72748 3.13173C4.64696 3.19029 4.5789 3.2643 4.52728 3.34944C4.47566 3.43459 4.44151 3.52916 4.42682 3.62764L3.67682 8.12764C3.67009 8.16823 3.66664 8.2093 3.6665 8.25045C3.668 9.3134 4.04518 10.3416 4.73138 11.1534C5.41758 11.9652 6.36864 12.5083 7.4165 12.6867V21.0005C7.4165 21.1994 7.49552 21.3901 7.63617 21.5308C7.77683 21.6714 7.96759 21.7505 8.1665 21.7505C8.36542 21.7505 8.55618 21.6714 8.69683 21.5308C8.83749 21.3901 8.9165 21.1994 8.9165 21.0005V12.6867C9.96437 12.5083 10.9154 11.9652 11.6016 11.1534C12.2878 10.3416 12.665 9.3134 12.6665 8.25045C12.6664 8.2093 12.6629 8.16823 12.6562 8.12764L11.9062 3.62764Z" fill="#121617"/>
</g>
</svg>
