<svg width="24" height="24" viewBox="0 0 24 24" fill="none" xmlns="http://www.w3.org/2000/svg">
<g id="Earth 2">
<path id="Vector" d="M14.1163 20.6296V20.5926C14.1251 16.9443 13.0413 14.2425 10.7618 16.1815C8.82283 17.8169 7.3528 18.3783 6.3877 18.5155" stroke="#121617" stroke-width="1.5" stroke-linecap="round" stroke-linejoin="round"/>
<path id="Vector_2" d="M5.00098 16.5657C6.26768 19.208 9.08029 20.8094 12.1887 20.8094C17.055 20.8094 21.0001 16.8653 21.0001 11.9989C21.0001 7.13256 17.055 3.1875 12.1887 3.1875" stroke="#121617" stroke-width="1.5" stroke-linecap="round" stroke-linejoin="round"/>
<path id="Vector_3" d="M14.5766 3.52344C14.4112 4.00112 13.8051 6.051 15.1652 7.48406C16.7092 9.11073 18.0323 9.20315 17.9866 10.967C17.9496 12.7415 15.7626 12.7133 16.9475 15.5259C17.4349 16.6837 18.0138 17.6031 18.3446 18.3006" stroke="#121617" stroke-width="1.5" stroke-linecap="round" stroke-linejoin="round"/>
<path id="Vector_4" fill-rule="evenodd" clip-rule="evenodd" d="M8.57833 8.39805C8.57833 7.62753 7.95374 7.00391 7.18418 7.00391C6.41366 7.00391 5.78906 7.62753 5.78906 8.39805C5.78906 9.16858 6.41366 9.7922 7.18418 9.7922C7.95374 9.7922 8.57833 9.16858 8.57833 8.39805Z" stroke="#121617" stroke-width="1.5" stroke-linecap="round" stroke-linejoin="round"/>
<path id="Vector_5" fill-rule="evenodd" clip-rule="evenodd" d="M7.18341 14.2552C6.51407 14.2552 3 11.4104 3 8.43341C3 6.12281 4.87281 4.25 7.18341 4.25C9.49402 4.25 11.3668 6.12281 11.3668 8.43341C11.3668 11.4104 7.85276 14.2552 7.18341 14.2552Z" stroke="#121617" stroke-width="1.5" stroke-linecap="round" stroke-linejoin="round"/>
</g>
</svg>
