<svg width="40" height="40" viewBox="0 0 40 40" fill="none" xmlns="http://www.w3.org/2000/svg">
<g id="icon">
<circle id="Ellipse 82" cx="20" cy="20" r="20" fill="#E0E1E1"/>
<g id="Vector">
<path d="M19 14C19 13.4477 19.4477 13 20 13C20.5523 13 21 13.4477 21 14V26C21 26.5523 20.5523 27 20 27C19.4477 27 19 26.5523 19 26V14Z" fill="#121617"/>
<path d="M14 21C13.4477 21 13 20.5523 13 20C13 19.4477 13.4477 19 14 19L26 19C26.5523 19 27 19.4477 27 20C27 20.5523 26.5523 21 26 21L14 21Z" fill="#121617"/>
</g>
</g>
</svg>
