<svg width="24" height="24" viewBox="0 0 24 24" fill="none" xmlns="http://www.w3.org/2000/svg">
<g clip-path="url(#clip0_2753_58856)">
<path d="M11.9641 0.75C7.05156 0.75 2.88906 3.9 1.35156 8.25H22.5766C21.0391 3.9 16.8766 0.75 11.9641 0.75Z" fill="#3E4347"/>
<path d="M11.9641 23.25C16.8766 23.25 21.0391 20.1375 22.5766 15.75H1.35156C2.88906 20.1375 7.05156 23.25 11.9641 23.25Z" fill="#FFE62E"/>
<path d="M1.34844 8.25C0.935937 9.4125 0.710938 10.6875 0.710938 12C0.710938 13.3125 0.935937 14.5875 1.34844 15.75H22.5734C22.9859 14.5875 23.2109 13.3125 23.2109 12C23.2109 10.6875 22.9859 9.4125 22.5734 8.25H1.34844Z" fill="#ED4C5C"/>
</g>
<defs>
<clipPath id="clip0_2753_58856">
<rect width="24" height="24" fill="white"/>
</clipPath>
</defs>
</svg>
