<svg width="21" height="21" viewBox="0 0 21 21" fill="none" xmlns="http://www.w3.org/2000/svg">
<g id="vuesax/linear/global">
<g id="global">
<path id="Vector" d="M10.4993 18.8333C15.1017 18.8333 18.8327 15.1024 18.8327 10.5C18.8327 5.89762 15.1017 2.16666 10.4993 2.16666C5.89698 2.16666 2.16602 5.89762 2.16602 10.5C2.16602 15.1024 5.89698 18.8333 10.4993 18.8333Z" stroke="#309C98" stroke-linecap="round" stroke-linejoin="round"/>
<path id="Vector_2" d="M7.16667 3H8C6.375 7.86667 6.375 13.1333 8 18H7.16667" stroke="#309C98" stroke-linecap="round" stroke-linejoin="round"/>
<path id="Vector_3" d="M13 3C14.625 7.86667 14.625 13.1333 13 18" stroke="#309C98" stroke-linecap="round" stroke-linejoin="round"/>
<path id="Vector_4" d="M3 13.8333V13C7.86667 14.625 13.1333 14.625 18 13V13.8333" stroke="#309C98" stroke-linecap="round" stroke-linejoin="round"/>
<path id="Vector_5" d="M3 8C7.86667 6.375 13.1333 6.375 18 8" stroke="#309C98" stroke-linecap="round" stroke-linejoin="round"/>
</g>
</g>
</svg>
