<svg width="20" height="20" viewBox="0 0 20 20" fill="none" xmlns="http://www.w3.org/2000/svg">
<g id="vuesax/bold/house-2">
<g id="house-2">
<path id="Vector" d="M8.33203 12.9166C7.99036 12.9166 7.70703 13.2 7.70703 13.5416V14.7916C7.70703 15.1333 7.99036 15.4166 8.33203 15.4166C8.6737 15.4166 8.95703 15.1333 8.95703 14.7916V13.5416C8.95703 13.2 8.6737 12.9166 8.33203 12.9166Z" fill="#646768"/>
<path id="Vector_2" d="M18.3346 17.7084H17.5013V8.31672C17.5013 7.80006 17.268 7.31672 16.8596 7.00006L11.0263 2.46672C10.4263 1.99172 9.5763 1.99172 8.9763 2.46672L3.14297 7.00006C2.73464 7.31672 2.5013 7.80006 2.5013 8.30839L2.45964 17.7084H1.66797C1.3263 17.7084 1.04297 17.9834 1.04297 18.3334C1.04297 18.6751 1.3263 18.9584 1.66797 18.9584H18.3346C18.6763 18.9584 18.9596 18.6751 18.9596 18.3334C18.9596 17.9834 18.6763 17.7084 18.3346 17.7084ZM8.7513 5.62506H11.2513C11.593 5.62506 11.8763 5.90839 11.8763 6.25006C11.8763 6.59172 11.593 6.87506 11.2513 6.87506H8.7513C8.40964 6.87506 8.1263 6.59172 8.1263 6.25006C8.1263 5.90839 8.40964 5.62506 8.7513 5.62506ZM14.168 17.7084H5.83464V10.4167C5.83464 9.72506 6.39297 9.16672 7.08464 9.16672H12.918C13.6096 9.16672 14.168 9.72506 14.168 10.4167V17.7084Z" fill="#646768"/>
</g>
</g>
</svg>
