<svg width="17" height="17" viewBox="0 0 17 17" fill="none" xmlns="http://www.w3.org/2000/svg">
<g id="vuesax/bold/like">
<g id="like">
<path id="Vector" d="M6.09326 12.8265V6.05315C6.09326 5.78649 6.17326 5.52649 6.31993 5.30649L8.13993 2.59982C8.42659 2.16649 9.13993 1.85982 9.74659 2.08649C10.3999 2.30649 10.8333 3.03982 10.6933 3.69315L10.3466 5.87315C10.3199 6.07315 10.3733 6.25315 10.4866 6.39315C10.5999 6.51982 10.7666 6.59982 10.9466 6.59982H13.6866C14.2133 6.59982 14.6666 6.81315 14.9333 7.18649C15.1866 7.54649 15.2333 8.01315 15.0666 8.48649L13.4266 13.4798C13.2199 14.3065 12.3199 14.9798 11.4266 14.9798H8.82659C8.37993 14.9798 7.75326 14.8265 7.46659 14.5398L6.61326 13.8798C6.28659 13.6332 6.09326 13.2398 6.09326 12.8265Z" fill="#121617"/>
<path id="Vector_2" d="M3.9735 4.75342H3.28683C2.2535 4.75342 1.8335 5.15342 1.8335 6.14008V12.8468C1.8335 13.8334 2.2535 14.2334 3.28683 14.2334H3.9735C5.00683 14.2334 5.42683 13.8334 5.42683 12.8468V6.14008C5.42683 5.15342 5.00683 4.75342 3.9735 4.75342Z" fill="#121617"/>
</g>
</g>
</svg>
