<svg width="20" height="20" viewBox="0 0 20 20" fill="none" xmlns="http://www.w3.org/2000/svg">
<g id="vuesax/bold/location">
<path id="Vector" d="M17.1849 7.04171C16.3099 3.19171 12.9515 1.45837 10.0015 1.45837C10.0015 1.45837 10.0015 1.45837 9.99321 1.45837C7.05154 1.45837 3.68488 3.18337 2.80988 7.03337C1.83488 11.3334 4.46821 14.975 6.85154 17.2667C7.73488 18.1167 8.86821 18.5417 10.0015 18.5417C11.1349 18.5417 12.2682 18.1167 13.1432 17.2667C15.5265 14.975 18.1599 11.3417 17.1849 7.04171ZM10.0015 11.2167C8.55154 11.2167 7.37654 10.0417 7.37654 8.59171C7.37654 7.14171 8.55154 5.96671 10.0015 5.96671C11.4515 5.96671 12.6265 7.14171 12.6265 8.59171C12.6265 10.0417 11.4515 11.2167 10.0015 11.2167Z" fill="#646768"/>
</g>
</svg>
