<svg width="14" height="14" viewBox="0 0 14 14" fill="none" xmlns="http://www.w3.org/2000/svg">
<g id="vuesax/bold/magic-star">
<g id="magic-star">
<path id="Vector" d="M10.0862 2.41502L10.0453 4.62585C10.0395 4.92918 10.232 5.33168 10.477 5.51252L11.9237 6.60918C12.8512 7.30918 12.6995 8.16668 11.5912 8.51668L9.70699 9.10585C9.39199 9.20502 9.05949 9.54918 8.97782 9.87002L8.52865 11.585C8.17282 12.9383 7.28615 13.0725 6.55115 11.8825L5.52449 10.22C5.33782 9.91668 4.89449 9.68918 4.54449 9.70668L2.59615 9.80585C1.20199 9.87585 0.805321 9.07085 1.71532 8.00918L2.87032 6.66752C3.08615 6.41668 3.18532 5.95002 3.08615 5.63502L2.49115 3.74502C2.14699 2.63668 2.76532 2.02418 3.86782 2.38585L5.58865 2.95168C5.88032 3.04502 6.31782 2.98085 6.56282 2.80002L8.35949 1.50502C9.33365 0.810849 10.1095 1.21918 10.0862 2.41502Z" fill="white"/>
<path id="Vector_2" d="M12.5064 11.9408L10.7389 10.1733C10.5697 10.0042 10.2897 10.0042 10.1205 10.1733C9.95136 10.3425 9.95136 10.6225 10.1205 10.7917L11.888 12.5592C11.9755 12.6467 12.0864 12.6875 12.1972 12.6875C12.308 12.6875 12.4189 12.6467 12.5064 12.5592C12.6755 12.39 12.6755 12.11 12.5064 11.9408Z" fill="white"/>
</g>
</g>
</svg>
