<svg width="20" height="20" viewBox="0 0 20 20" fill="none" xmlns="http://www.w3.org/2000/svg">
<g id="vuesax/bold/map">
<path id="Vector" d="M6.3582 2.975C6.50769 2.89347 6.66654 3.01891 6.66654 3.18918V14.4666C6.66654 14.6639 6.53145 14.8305 6.3582 14.925L4.39987 16.0417C3.0332 16.825 1.9082 16.175 1.9082 14.5917V6.48334C1.9082 5.95834 2.2832 5.30834 2.74987 5.04167L6.3582 2.975Z" fill="#121617"/>
<path id="Vector_2" d="M12.2219 5.06227C12.3922 5.14662 12.5 5.32026 12.5 5.51033V16.2869C12.5 16.6554 12.115 16.8973 11.783 16.7374L8.40798 15.1113C8.23498 15.028 8.125 14.8529 8.125 14.6609V3.8389C8.125 3.46804 8.51456 3.22625 8.8469 3.39084L12.2219 5.06227Z" fill="#121617"/>
<path id="Vector_3" d="M18.334 5.40834V13.5167C18.334 14.0417 17.959 14.6917 17.4923 14.9583L14.7076 16.5543C14.3743 16.7453 13.959 16.5047 13.959 16.1205V5.32366C13.959 5.14414 14.0552 4.97841 14.2111 4.88942L15.8423 3.95834C17.209 3.175 18.334 3.825 18.334 5.40834Z" fill="#121617"/>
</g>
</svg>
