<svg width="24" height="24" viewBox="0 0 24 24" fill="none" xmlns="http://www.w3.org/2000/svg">
<g id="messages bubble 1">
<path id="Vector" d="M4.8389 21.6541C4.55953 21.6542 4.28541 21.5783 4.04587 21.4345C3.80634 21.2907 3.61042 21.0845 3.47911 20.8379C3.34781 20.5913 3.28604 20.3136 3.30045 20.0346C3.31486 19.7557 3.40489 19.4858 3.5609 19.2541C3.7609 18.9541 4.01791 18.5861 4.21891 18.3021C4.23309 18.2819 4.24119 18.2581 4.24225 18.2335C4.24332 18.2088 4.23729 18.1844 4.2249 18.1631C3.8921 17.6123 3.58772 17.0449 3.31292 16.4631C2.39622 14.4844 2.23873 12.2379 2.87043 10.1507C3.50212 8.06355 4.87892 6.28136 6.73896 5.14311C8.59899 4.00487 10.8125 3.58998 12.9585 3.97735C15.1045 4.36473 17.0332 5.52734 18.3779 7.24408C18.4415 7.32115 18.489 7.41015 18.5177 7.50584C18.5464 7.60154 18.5557 7.70201 18.545 7.80134C18.5344 7.90068 18.504 7.99688 18.4556 8.08431C18.4073 8.17173 18.3419 8.24861 18.2634 8.31044C18.185 8.37226 18.0949 8.41779 17.9986 8.44433C17.9023 8.47088 17.8016 8.47791 17.7026 8.46502C17.6035 8.45214 17.508 8.41958 17.4217 8.36928C17.3353 8.31897 17.26 8.25192 17.1999 8.17208C16.5567 7.34846 15.7458 6.67098 14.8209 6.18455C13.896 5.69812 12.8783 5.41385 11.8352 5.35059C10.7922 5.28733 9.74754 5.44652 8.77065 5.81762C7.79376 6.18871 6.90691 6.76323 6.1689 7.50308C5.10165 8.58197 4.38842 9.96041 4.1242 11.4548C3.85997 12.9492 4.05731 14.4886 4.68992 15.8681C4.76192 16.0451 5.00791 16.5181 5.52591 17.4191C5.67979 17.6891 5.75368 17.9972 5.73899 18.3076C5.72429 18.618 5.6216 18.9178 5.44291 19.1721C5.24791 19.4471 5.0019 19.8001 4.8089 20.0901L6.13691 20.1531H9.57491C9.77382 20.1531 9.96459 20.2321 10.1052 20.3727C10.2459 20.5134 10.3249 20.7042 10.3249 20.9031C10.3249 21.102 10.2459 21.2928 10.1052 21.4334C9.96459 21.5741 9.77382 21.6531 9.57491 21.6531C8.93991 21.6531 7.68391 21.6531 6.14391 21.6531L4.8389 21.6541Z" fill="#121617"/>
<path id="Vector_2" d="M16.0975 21.653C14.814 21.6564 13.5641 21.2434 12.5354 20.4759C11.5066 19.7085 10.7547 18.6279 10.3925 17.3967C10.0302 16.1654 10.0772 14.8498 10.5264 13.6475C10.9756 12.4452 11.8028 11.4211 12.8837 10.729C13.9645 10.0369 15.2408 9.71418 16.5207 9.80927C17.8007 9.90437 19.0152 10.4122 19.9819 11.2564C20.9487 12.1006 21.6154 13.2357 21.882 14.4912C22.1486 15.7466 22.0007 17.0547 21.4605 18.219C21.3082 18.5556 21.1342 18.8819 20.9395 19.196C21.0535 19.358 21.1835 19.544 21.2905 19.703C21.4164 19.8911 21.489 20.1098 21.5006 20.3359C21.5122 20.562 21.4623 20.787 21.3562 20.987C21.2502 21.187 21.0919 21.3545 20.8983 21.4718C20.7047 21.589 20.4829 21.6516 20.2565 21.653C18.9105 21.653 16.6305 21.653 16.1185 21.653C16.1045 21.649 16.1025 21.653 16.0975 21.653ZM16.0925 11.294C16.0065 11.294 15.9215 11.294 15.8365 11.302C15.2106 11.3363 14.5995 11.5048 14.0444 11.7961C13.4894 12.0873 13.0034 12.4945 12.6195 12.99C12.0032 13.7948 11.6772 14.7844 11.6944 15.798C11.7116 16.8116 12.0711 17.7895 12.7145 18.573C13.1288 19.0673 13.6464 19.4649 14.2309 19.7379C14.8153 20.0109 15.4524 20.1525 16.0975 20.153C16.3145 20.169 16.8515 20.153 17.5095 20.153H19.7785C19.7325 20.086 19.6865 20.022 19.6445 19.962C19.5009 19.7578 19.4184 19.5169 19.4067 19.2675C19.395 19.0182 19.4546 18.7707 19.5785 18.554C19.9235 17.954 20.0595 17.687 20.0785 17.627C20.4642 16.7985 20.5875 15.872 20.4318 14.9716C20.2761 14.0711 19.8489 13.2398 19.2075 12.589C18.7988 12.1791 18.3133 11.8538 17.7788 11.6316C17.2443 11.4094 16.6713 11.2947 16.0925 11.294Z" fill="#121617"/>
</g>
</svg>
