<svg width="16" height="17" viewBox="0 0 16 17" fill="none" xmlns="http://www.w3.org/2000/svg">
<g id="vuesax/bold/message-text">
<g id="message-text">
<path id="Vector" d="M11.3335 1.8335H4.66683C2.82683 1.8335 1.3335 3.32016 1.3335 5.1535V9.14016V9.80683C1.3335 11.6402 2.82683 13.1268 4.66683 13.1268H5.66683C5.84683 13.1268 6.08683 13.2468 6.20016 13.3935L7.20016 14.7202C7.64016 15.3068 8.36016 15.3068 8.80016 14.7202L9.80016 13.3935C9.92683 13.2268 10.1268 13.1268 10.3335 13.1268H11.3335C13.1735 13.1268 14.6668 11.6402 14.6668 9.80683V5.1535C14.6668 3.32016 13.1735 1.8335 11.3335 1.8335ZM8.66683 9.66683H4.66683C4.3935 9.66683 4.16683 9.44016 4.16683 9.16683C4.16683 8.8935 4.3935 8.66683 4.66683 8.66683H8.66683C8.94016 8.66683 9.16683 8.8935 9.16683 9.16683C9.16683 9.44016 8.94016 9.66683 8.66683 9.66683ZM11.3335 6.3335H4.66683C4.3935 6.3335 4.16683 6.10683 4.16683 5.8335C4.16683 5.56016 4.3935 5.3335 4.66683 5.3335H11.3335C11.6068 5.3335 11.8335 5.56016 11.8335 5.8335C11.8335 6.10683 11.6068 6.3335 11.3335 6.3335Z" fill="#121617"/>
</g>
</g>
</svg>
