<svg width="60" height="60" viewBox="0 0 60 60" fill="none" xmlns="http://www.w3.org/2000/svg">
<g id="newsletter 1">
<g id="Group">
<g id="Group_2">
<path id="Vector" d="M37.0926 12.1711C36.9892 11.853 36.7142 11.6211 36.383 11.573L32.5166 11.0112L30.7875 7.50766C30.6395 7.20766 30.334 7.0177 29.9994 7.0177C29.665 7.0177 29.3594 7.20766 29.2112 7.50766L27.4821 11.0112L23.6158 11.573C23.2847 11.6211 23.0097 11.853 22.9063 12.1711C22.8029 12.4893 22.8892 12.8386 23.1287 13.0721L25.9265 15.7991L25.266 19.6499C25.2095 19.9797 25.345 20.313 25.6157 20.5095C25.8863 20.7061 26.2451 20.7321 26.5412 20.5764L29.9994 18.7582L33.4575 20.5764C33.5862 20.644 33.7266 20.6773 33.8664 20.6773C34.0486 20.6773 34.23 20.6207 34.3831 20.5095C34.6538 20.3129 34.7894 19.9796 34.7326 19.6499L34.0723 15.7991L36.87 13.0721C37.1098 12.8386 37.1959 12.4894 37.0926 12.1711ZM32.5146 14.863C32.3074 15.065 32.213 15.3559 32.262 15.6409L32.6993 18.192L30.4084 16.9875C30.2805 16.9203 30.1399 16.8866 29.9994 16.8866C29.8589 16.8866 29.7184 16.9203 29.5905 16.9875L27.2996 18.192L27.7371 15.6411C27.786 15.3559 27.6915 15.065 27.4844 14.863L25.631 13.0565L28.1923 12.6843C28.4786 12.6427 28.726 12.4629 28.854 12.2035L29.9994 9.88258L31.1448 12.2035C31.2729 12.4628 31.5203 12.6427 31.8066 12.6843L34.3678 13.0565L32.5146 14.863Z" fill="white"/>
</g>
</g>
<g id="Group_3">
<g id="Group_4">
<path id="Vector_2" d="M40.9351 11.2435H40.7363C40.2508 11.2435 39.8574 11.637 39.8574 12.1224C39.8574 12.6078 40.2509 13.0013 40.7363 13.0013H40.9351C41.4206 13.0013 41.814 12.6078 41.814 12.1224C41.814 11.637 41.4206 11.2435 40.9351 11.2435Z" fill="white"/>
</g>
</g>
<g id="Group_5">
<g id="Group_6">
<path id="Vector_3" d="M40.9351 14.6938H40.7363C40.2508 14.6938 39.8574 15.0874 39.8574 15.5728C39.8574 16.0581 40.2509 16.4517 40.7363 16.4517H40.9351C41.4206 16.4517 41.814 16.0581 41.814 15.5728C41.814 15.0874 41.4206 14.6938 40.9351 14.6938Z" fill="white"/>
</g>
</g>
<g id="Group_7">
<g id="Group_8">
<path id="Vector_4" d="M19.2633 11.2435H19.0645C18.5791 11.2435 18.1855 11.637 18.1855 12.1224C18.1855 12.6078 18.5791 13.0013 19.0645 13.0013H19.2633C19.7487 13.0013 20.1422 12.6078 20.1422 12.1224C20.1422 11.637 19.7487 11.2435 19.2633 11.2435Z" fill="white"/>
</g>
</g>
<g id="Group_9">
<g id="Group_10">
<path id="Vector_5" d="M19.2633 14.6938H19.0645C18.5791 14.6938 18.1855 15.0874 18.1855 15.5728C18.1855 16.0581 18.5791 16.4517 19.0645 16.4517H19.2633C19.7487 16.4517 20.1422 16.0581 20.1422 15.5728C20.1422 15.0874 19.7487 14.6938 19.2633 14.6938Z" fill="white"/>
</g>
</g>
<g id="Group_11">
<g id="Group_12">
<path id="Vector_6" d="M55.6391 28.5525C55.3267 28.3812 54.9954 28.2756 54.6601 28.2323V13.9031C54.6601 11.9834 53.0982 10.4215 51.1785 10.4215H50.1531V2.95781C50.1532 1.32691 48.8258 0 47.1942 0H12.8055C11.1746 0 9.8477 1.32691 9.8477 2.95781V5.05898C9.8477 5.54437 10.2412 5.93789 10.7266 5.93789C11.212 5.93789 11.6055 5.54437 11.6055 5.05898V2.95781C11.6055 2.29617 12.1439 1.75781 12.8055 1.75781H47.1942C47.8565 1.75781 48.3954 2.29617 48.3954 2.95781V31.4843L30.3085 43.0229C29.9837 43.23 29.5654 43.2284 29.2425 43.0186L11.6055 31.5671V8.61328C11.6055 8.12789 11.212 7.73437 10.7266 7.73437C10.2412 7.73437 9.8477 8.12789 9.8477 8.61328V10.4215H8.82231C6.90254 10.4215 5.34066 11.9834 5.34066 13.9031V28.2697C5.00656 28.3114 4.67762 28.4136 4.37141 28.5798C3.48699 29.06 2.9375 29.9836 2.9375 30.99V57.2572C2.9375 58.7695 4.16785 59.9999 5.68016 59.9999H6.8559C7.34129 59.9999 7.73481 59.6064 7.73481 59.121C7.73481 58.6356 7.34129 58.2421 6.8559 58.2421H5.68027C5.13723 58.2421 4.69543 57.8003 4.69543 57.2572V30.9901C4.69543 30.6232 4.88797 30.2996 5.21035 30.1246C5.53285 29.9496 5.90891 29.9643 6.21652 30.1641L28.2852 44.4929C29.1843 45.0769 30.3498 45.0816 31.2539 44.5049L53.7909 30.1273C54.0984 29.931 54.4735 29.9183 54.794 30.094C55.1142 30.2695 55.3054 30.5924 55.3054 30.9577V49.4338C55.3054 49.9192 55.6988 50.3127 56.1844 50.3127C56.6699 50.3127 57.0633 49.9192 57.0633 49.4338V30.9575C57.0634 29.9405 56.531 29.0414 55.6391 28.5525ZM9.8477 30.4259L7.17383 28.6897C7.1491 28.6737 7.12356 28.6596 7.09848 28.6444V13.9031C7.09848 12.9526 7.8718 12.1793 8.82231 12.1793H9.8477V30.4259ZM52.9024 28.6116C52.8835 28.623 52.8642 28.6334 52.8456 28.6453L50.1532 30.3629V12.1793H51.1786C52.1291 12.1793 52.9024 12.9526 52.9024 13.9031V28.6116Z" fill="white"/>
</g>
</g>
<g id="Group_13">
<g id="Group_14">
<path id="Vector_7" d="M56.1841 52.1093C55.6985 52.1093 55.3051 52.5028 55.3051 52.9882V57.2573C55.3051 57.8004 54.8632 58.2421 54.3203 58.2421H10.4102C9.92477 58.2421 9.53125 58.6357 9.53125 59.1211C9.53125 59.6064 9.92477 60 10.4102 60H54.3203C55.8326 60 57.063 58.7696 57.063 57.2573V52.9882C57.063 52.5028 56.6694 52.1093 56.1841 52.1093Z" fill="white"/>
</g>
</g>
<g id="Group_15">
<g id="Group_16">
<path id="Vector_8" d="M35.5003 24.9126H24.5C24.0146 24.9126 23.6211 25.3061 23.6211 25.7915C23.6211 26.2769 24.0146 26.6704 24.5 26.6704H35.5003C35.9858 26.6704 36.3792 26.2769 36.3792 25.7915C36.3792 25.3061 35.9858 24.9126 35.5003 24.9126Z" fill="white"/>
</g>
</g>
<g id="Group_17">
<g id="Group_18">
<path id="Vector_9" d="M40.3634 29.3712H19.6357C19.1504 29.3712 18.7568 29.7647 18.7568 30.2501C18.7568 30.7355 19.1504 31.129 19.6357 31.129H40.3634C40.8489 31.129 41.2423 30.7355 41.2423 30.2501C41.2423 29.7647 40.8489 29.3712 40.3634 29.3712Z" fill="white"/>
</g>
</g>
<g id="Group_19">
<g id="Group_20">
<path id="Vector_10" d="M40.3634 32.2788H19.6357C19.1504 32.2788 18.7568 32.6723 18.7568 33.1577C18.7568 33.6431 19.1504 34.0366 19.6357 34.0366H40.3634C40.8489 34.0366 41.2423 33.6431 41.2423 33.1577C41.2423 32.6723 40.8489 32.2788 40.3634 32.2788Z" fill="white"/>
</g>
</g>
<g id="Group_21">
<g id="Group_22">
<path id="Vector_11" d="M35.4038 35.1866H24.5967C24.1113 35.1866 23.7178 35.5802 23.7178 36.0656C23.7178 36.5509 24.1113 36.9445 24.5967 36.9445H35.4038C35.8893 36.9445 36.2827 36.5509 36.2827 36.0656C36.2827 35.5802 35.8893 35.1866 35.4038 35.1866Z" fill="white"/>
</g>
</g>
</g>
</svg>
