<svg width="20" height="20" viewBox="0 0 20 20" fill="none" xmlns="http://www.w3.org/2000/svg">
<g id="vuesax/bold/people">
<g id="people">
<path id="Vector" d="M14.6089 6.47496C14.5505 6.46663 14.4922 6.46663 14.4339 6.47496C13.1422 6.43329 12.1172 5.37496 12.1172 4.07496C12.1172 2.74996 13.1922 1.66663 14.5255 1.66663C15.8505 1.66663 16.9339 2.74163 16.9339 4.07496C16.9255 5.37496 15.9005 6.43329 14.6089 6.47496Z" fill="#646768"/>
<path id="Vector_2" d="M17.3237 12.25C16.3904 12.875 15.082 13.1083 13.8737 12.95C14.1904 12.2666 14.357 11.5083 14.3654 10.7083C14.3654 9.87497 14.182 9.0833 13.832 8.39164C15.0654 8.22497 16.3737 8.4583 17.3154 9.0833C18.632 9.94997 18.632 11.375 17.3237 12.25Z" fill="#646768"/>
<path id="Vector_3" d="M5.36745 6.47496C5.42578 6.46663 5.48411 6.46663 5.54245 6.47496C6.83411 6.43329 7.85911 5.37496 7.85911 4.07496C7.85911 2.74163 6.78411 1.66663 5.45078 1.66663C4.12578 1.66663 3.05078 2.74163 3.05078 4.07496C3.05078 5.37496 4.07578 6.43329 5.36745 6.47496Z" fill="#646768"/>
<path id="Vector_4" d="M5.4599 10.7083C5.4599 11.5167 5.6349 12.2833 5.95156 12.975C4.77656 13.1 3.55156 12.85 2.65156 12.2583C1.3349 11.3833 1.3349 9.95834 2.65156 9.08334C3.54323 8.48334 4.80156 8.24167 5.9849 8.37501C5.64323 9.07501 5.4599 9.86667 5.4599 10.7083Z" fill="#646768"/>
<path id="Vector_5" d="M10.1 13.225C10.0333 13.2167 9.95833 13.2167 9.88333 13.225C8.35 13.175 7.125 11.9167 7.125 10.3667C7.13333 8.78333 8.40833 7.5 10 7.5C11.5833 7.5 12.8667 8.78333 12.8667 10.3667C12.8583 11.9167 11.6417 13.175 10.1 13.225Z" fill="#646768"/>
<path id="Vector_6" d="M7.39297 14.95C6.13464 15.7916 6.13464 17.175 7.39297 18.0083C8.8263 18.9666 11.1763 18.9666 12.6096 18.0083C13.868 17.1666 13.868 15.7833 12.6096 14.95C11.1846 13.9916 8.83464 13.9916 7.39297 14.95Z" fill="#646768"/>
</g>
</g>
</svg>
