<svg width="21" height="21" viewBox="0 0 21 21" fill="none" xmlns="http://www.w3.org/2000/svg">
<g id="vuesax/linear/people">
<g id="people">
<g id="Group">
<path id="Vector" d="M15.5004 6.46666C15.4504 6.45833 15.3921 6.45833 15.3421 6.46666C14.1921 6.42499 13.2754 5.48332 13.2754 4.31666C13.2754 3.12499 14.2337 2.16666 15.4254 2.16666C16.6171 2.16666 17.5754 3.13332 17.5754 4.31666C17.5671 5.48332 16.6504 6.42499 15.5004 6.46666Z" stroke="#309C98" stroke-linecap="round" stroke-linejoin="round"/>
<path id="Vector_2" d="M14.6422 12.5333C15.7839 12.725 17.0422 12.525 17.9255 11.9333C19.1005 11.15 19.1005 9.86667 17.9255 9.08334C17.0339 8.49167 15.7589 8.29166 14.6172 8.49166" stroke="#309C98" stroke-linecap="round" stroke-linejoin="round"/>
</g>
<g id="Group_2">
<path id="Vector_3" d="M5.47344 6.46666C5.52344 6.45833 5.58177 6.45833 5.63177 6.46666C6.78177 6.42499 7.69844 5.48332 7.69844 4.31666C7.69844 3.12499 6.74011 2.16666 5.54844 2.16666C4.35677 2.16666 3.39844 3.13332 3.39844 4.31666C3.40677 5.48332 4.32344 6.42499 5.47344 6.46666Z" stroke="#309C98" stroke-linecap="round" stroke-linejoin="round"/>
<path id="Vector_4" d="M6.33255 12.5333C5.19088 12.725 3.93255 12.525 3.04922 11.9333C1.87422 11.15 1.87422 9.86667 3.04922 9.08334C3.94089 8.49167 5.21588 8.29166 6.35755 8.49166" stroke="#309C98" stroke-linecap="round" stroke-linejoin="round"/>
</g>
<g id="Group_3">
<path id="Vector_5" d="M10.5004 12.6917C10.4504 12.6833 10.3921 12.6833 10.3421 12.6917C9.19206 12.65 8.27539 11.7083 8.27539 10.5417C8.27539 9.35 9.23372 8.39166 10.4254 8.39166C11.6171 8.39166 12.5754 9.35833 12.5754 10.5417C12.5671 11.7083 11.6504 12.6583 10.5004 12.6917Z" stroke="#309C98" stroke-linecap="round" stroke-linejoin="round"/>
<path id="Vector_6" d="M8.07461 15.3167C6.89961 16.1 6.89961 17.3833 8.07461 18.1667C9.40794 19.0583 11.5913 19.0583 12.9246 18.1667C14.0996 17.3833 14.0996 16.1 12.9246 15.3167C11.5996 14.4333 9.40794 14.4333 8.07461 15.3167Z" stroke="#309C98" stroke-linecap="round" stroke-linejoin="round"/>
</g>
</g>
</g>
</svg>
