<svg width="11" height="10" viewBox="0 0 11 10" fill="none" xmlns="http://www.w3.org/2000/svg">
<g id="star (1) 5" clip-path="url(#clip0_1368_61319)">
<path id="Vector" d="M10.4739 3.83573C10.408 3.63325 10.2284 3.48989 10.0168 3.47074L7.13006 3.20866L5.98922 0.537725C5.90499 0.341494 5.71333 0.214844 5.50001 0.214844C5.28669 0.214844 5.09496 0.341494 5.01127 0.537725L3.87042 3.20866L0.98326 3.47074C0.771617 3.49027 0.5924 3.63363 0.526175 3.83573C0.460333 4.03822 0.52114 4.26032 0.681207 4.4007L2.86333 6.3141L2.21993 9.14786C2.17286 9.35622 2.25373 9.57168 2.42661 9.69665C2.51954 9.76417 2.62872 9.79789 2.73828 9.79789C2.83243 9.79789 2.92665 9.77287 3.01081 9.72251L5.50001 8.23415L7.98876 9.72251C8.17134 9.83161 8.40091 9.82162 8.57341 9.69665C8.7463 9.57168 8.82717 9.35622 8.7801 9.14786L8.1367 6.3141L10.3188 4.4007C10.4788 4.26032 10.5397 4.03868 10.4739 3.83573Z" fill="#FE9A24"/>
</g>
<defs>
<clipPath id="clip0_1368_61319">
<rect width="10" height="10" fill="white" transform="translate(0.5)"/>
</clipPath>
</defs>
</svg>
