<svg xmlns="http://www.w3.org/2000/svg" width="29" height="28" viewBox="0 0 29 28" fill="none">
<path d="M14.4984 23.0404H11.3717C10.0184 23.0404 8.84005 22.2237 8.37338 20.9637C7.89505 19.7037 8.24505 18.3154 9.26005 17.417L18.5817 9.26203C19.1417 8.77203 19.1534 8.10703 18.9901 7.65203C18.8151 7.19703 18.3717 6.70703 17.6251 6.70703H14.4984C14.0201 6.70703 13.6234 6.31036 13.6234 5.83203C13.6234 5.3537 14.0201 4.95703 14.4984 4.95703H17.6251C18.9784 4.95703 20.1567 5.7737 20.6234 7.0337C21.1017 8.2937 20.7517 9.68203 19.7367 10.5804L10.4151 18.7354C9.85505 19.2254 9.84338 19.8904 10.0067 20.3454C10.1817 20.8004 10.6251 21.2904 11.3717 21.2904H14.4984C14.9767 21.2904 15.3734 21.687 15.3734 22.1654C15.3734 22.6437 14.9767 23.0404 14.4984 23.0404Z" fill="#079455"/>
<path d="M23.8324 17.5H20.3324C19.049 17.5 17.999 18.55 17.999 19.8333V23.3333C17.999 24.6167 19.049 25.6667 20.3324 25.6667H23.8324C25.1157 25.6667 26.1657 24.6167 26.1657 23.3333V19.8333C26.1657 18.55 25.1157 17.5 23.8324 17.5ZM22.094 22.75C21.4524 22.75 20.9274 22.225 20.9274 21.5833C20.9274 20.9417 21.4407 20.4167 22.094 20.4167H22.1057C22.7474 20.4167 23.2724 20.9417 23.2724 21.5833C23.2724 22.225 22.7474 22.75 22.094 22.75Z" fill="#079455"/>
<path d="M6.88021 2.33203C4.62854 2.33203 2.79688 4.1637 2.79688 6.41536C2.79688 8.66703 4.62854 10.4987 6.88021 10.4987C9.13188 10.4987 10.9635 8.66703 10.9635 6.41536C10.9635 4.1637 9.14354 2.33203 6.88021 2.33203ZM6.92688 7.58203C6.28521 7.58203 5.76021 7.05703 5.76021 6.41536C5.76021 5.7737 6.27354 5.2487 6.92688 5.2487H6.93854C7.58021 5.2487 8.10521 5.7737 8.10521 6.41536C8.10521 7.05703 7.58021 7.58203 6.92688 7.58203Z" fill="#079455"/>
</svg>