<svg xmlns="http://www.w3.org/2000/svg" width="20" height="20" viewBox="0 0 20 20" fill="none">
<path d="M4.55827 7.49935C6.1691 7.49935 7.47494 6.19351 7.47494 4.58268C7.47494 2.97185 6.1691 1.66602 4.55827 1.66602C2.94744 1.66602 1.6416 2.97185 1.6416 4.58268C1.6416 6.19351 2.94744 7.49935 4.55827 7.49935Z" stroke="#309C98" stroke-width="1.5"/>
<path d="M14.1413 12.5H16.6413C17.5579 12.5 18.3079 13.25 18.3079 14.1667V16.6667C18.3079 17.5833 17.5579 18.3333 16.6413 18.3333H14.1413C13.2246 18.3333 12.4746 17.5833 12.4746 16.6667V14.1667C12.4746 13.25 13.2246 12.5 14.1413 12.5Z" stroke="#309C98" stroke-width="1.5"/>
<path d="M10.0004 4.16602H12.2337C13.7754 4.16602 14.4921 6.07435 13.3337 7.09102L6.6754 12.916C5.51707 13.9243 6.23373 15.8327 7.76707 15.8327H10.0004" stroke="#309C98" stroke-width="1.5" stroke-linecap="round" stroke-linejoin="round"/>
<path d="M4.57209 4.58268H4.58172" stroke="#309C98" stroke-width="2" stroke-linecap="round" stroke-linejoin="round"/>
<path d="M15.4051 15.4167H15.4147" stroke="#309C98" stroke-width="2" stroke-linecap="round" stroke-linejoin="round"/>
</svg>