<svg width="18" height="18" viewBox="0 0 18 18" fill="none" xmlns="http://www.w3.org/2000/svg">
<g id="Run 1">
<path id="Vector" d="M14.0359 8.99557C12.9868 9.04312 11.945 8.80072 11.0247 8.29507C10.6542 8.05267 10.3069 7.77652 9.98745 7.47004C9.8442 7.33954 9.7002 7.20904 9.55095 7.08529C8.95425 6.62161 8.21145 6.38669 7.45666 6.423C6.7019 6.45932 5.98504 6.76447 5.43568 7.28329C5.32836 7.38692 5.18427 7.44368 5.03511 7.44108C4.88595 7.43848 4.74393 7.37673 4.64029 7.26941C4.53667 7.1621 4.47991 7.01801 4.48251 6.86885C4.48511 6.71969 4.54685 6.57767 4.65417 6.47404C5.39971 5.75746 6.3804 5.33647 7.41342 5.28955C8.44642 5.24263 9.46125 5.573 10.2687 6.21904C10.4299 6.35254 10.5867 6.49429 10.7427 6.63604C11.0113 6.89528 11.3026 7.12973 11.6134 7.33654C12.5327 7.79707 13.5669 7.97797 14.5879 7.85707C14.6621 7.85205 14.7366 7.86218 14.8068 7.88685C14.877 7.91145 14.9415 7.95007 14.9963 8.00032C15.0511 8.05065 15.0952 8.11147 15.1258 8.17927C15.1564 8.24707 15.1729 8.32043 15.1744 8.39482C15.1809 8.54378 15.128 8.6892 15.0273 8.79922C14.9266 8.90917 14.7864 8.97465 14.6374 8.98132C14.4454 8.98957 14.2437 8.99557 14.0359 8.99557Z" fill="#666666"/>
<path id="Vector_2" d="M9.01103 16.3129C8.91698 16.3127 8.8245 16.289 8.742 16.2439C8.6595 16.1988 8.5896 16.1338 8.53868 16.0547C8.48775 15.9757 8.45738 15.8852 8.45048 15.7913C8.4435 15.6976 8.46008 15.6036 8.49878 15.5179L8.68703 15.1114C9.1404 14.3422 9.38618 13.4684 9.40028 12.5756C9.31058 12.1221 9.0927 11.7038 8.77253 11.3704C8.40968 10.9554 8.13578 10.4704 7.96778 9.94538C7.52528 8.29538 8.47028 7.11713 9.22928 6.16988C9.32258 6.05341 9.45833 5.97878 9.6066 5.96239C9.75495 5.946 9.90368 5.98921 10.0202 6.0825C10.1366 6.17579 10.2113 6.31152 10.2277 6.45984C10.244 6.60816 10.2008 6.75691 10.1075 6.87338C9.26828 7.92338 8.77928 8.62913 9.05753 9.65363C9.19028 10.0337 9.39668 10.384 9.66503 10.6841C10.1208 11.1799 10.4192 11.7998 10.5223 12.4654C10.5395 13.5613 10.2585 14.6413 9.70928 15.5899L9.52628 15.9844C9.48128 16.083 9.40868 16.1666 9.31725 16.2248C9.22583 16.2831 9.11948 16.3137 9.01103 16.3129Z" fill="#666666"/>
<path id="Vector_3" d="M4.68858 12.9133H4.37358C4.17408 12.9133 3.97607 12.9096 3.77807 12.9133C3.62889 12.9177 3.48413 12.8625 3.37561 12.76C3.2671 12.6576 3.20373 12.5162 3.19945 12.367C3.19517 12.2178 3.25034 12.073 3.3528 11.9645C3.45527 11.856 3.59664 11.7927 3.74582 11.7883C3.95807 11.7816 4.17107 11.7838 4.38407 11.7883C4.74497 11.8001 5.10626 11.788 5.46557 11.7523C5.96888 11.674 6.45257 11.5001 6.89058 11.2401C6.95558 11.205 7.02688 11.1829 7.10039 11.1754C7.1739 11.1677 7.24819 11.1747 7.31902 11.1958C7.38984 11.2169 7.45583 11.2517 7.5132 11.2984C7.57058 11.3449 7.6182 11.4024 7.6533 11.4674C7.68848 11.5324 7.71053 11.6037 7.7181 11.6772C7.72575 11.7507 7.71878 11.825 7.6977 11.8958C7.67655 11.9666 7.64175 12.0326 7.5951 12.09C7.54853 12.1474 7.49108 12.195 7.42607 12.2302C6.86567 12.5566 6.24815 12.7732 5.60658 12.8684C5.30182 12.9025 4.99522 12.9175 4.68858 12.9133Z" fill="#666666"/>
<path id="Vector_4" d="M11.72 5.7975C11.3136 5.7975 10.9163 5.67697 10.5784 5.45117C10.2404 5.22536 9.97703 4.90441 9.82148 4.52891C9.66593 4.15341 9.62521 3.74022 9.70456 3.34159C9.78383 2.94296 9.97951 2.57679 10.2669 2.2894C10.5543 2.002 10.9205 1.80628 11.3192 1.72699C11.7178 1.6477 12.131 1.68839 12.5065 1.84393C12.8819 1.99947 13.2029 2.26286 13.4287 2.6008C13.6545 2.93875 13.775 3.33606 13.775 3.7425C13.7744 4.28734 13.5578 4.80969 13.1725 5.19495C12.7872 5.5802 12.2649 5.79691 11.72 5.7975ZM11.72 2.8125C11.5361 2.8125 11.3563 2.86705 11.2034 2.96923C11.0504 3.07142 10.9313 3.21667 10.8608 3.3866C10.7905 3.55654 10.772 3.74353 10.8079 3.92393C10.8438 4.10434 10.9324 4.27005 11.0624 4.40011C11.1925 4.53017 11.3582 4.61875 11.5386 4.65463C11.719 4.69051 11.906 4.67209 12.0759 4.60171C12.2459 4.53132 12.3911 4.41212 12.4933 4.25918C12.5955 4.10624 12.65 3.92644 12.65 3.7425C12.6499 3.49591 12.5518 3.25948 12.3774 3.08511C12.2031 2.91074 11.9666 2.8127 11.72 2.8125Z" fill="#666666"/>
</g>
</svg>
