<svg width="20" height="20" viewBox="0 0 20 20" fill="none" xmlns="http://www.w3.org/2000/svg">
<g id="search (1) 1" opacity="0.72">
<g id="layer1">
<path id="circle2017" d="M9.11664 1.60944C4.98432 1.60944 1.61816 4.97554 1.61816 9.10782C1.61816 13.2401 4.98432 16.6127 9.11664 16.6127C10.8817 16.6127 12.505 15.9942 13.7879 14.9672L16.9113 18.0889C17.069 18.24 17.2795 18.3234 17.4978 18.3211C17.7162 18.3189 17.9249 18.2313 18.0794 18.077C18.2339 17.9227 18.3219 17.7141 18.3244 17.4958C18.3269 17.2775 18.2439 17.0668 18.093 16.909L14.9696 13.7856C15.9974 12.5007 16.6167 10.8749 16.6167 9.10782C16.6167 4.97554 13.249 1.60944 9.11664 1.60944ZM9.11664 3.27613C12.3482 3.27613 14.9484 5.87629 14.9484 9.10782C14.9484 12.3393 12.3482 14.946 9.11664 14.946C5.88506 14.946 3.28485 12.3393 3.28485 9.10782C3.28485 5.87629 5.88506 3.27613 9.11664 3.27613Z" fill="#121617"/>
</g>
</g>
</svg>
