<svg width="21" height="20" viewBox="0 0 21 20" fill="none" xmlns="http://www.w3.org/2000/svg">
<g id="search (1) 1" opacity="0.72">
<g id="layer1">
<path id="circle2017" d="M9.32807 1.60944C5.19574 1.60944 1.82959 4.97554 1.82959 9.10782C1.82959 13.2401 5.19574 16.6127 9.32807 16.6127C11.0931 16.6127 12.7164 15.9942 13.9994 14.9672L17.1228 18.0889C17.2804 18.24 17.4909 18.3234 17.7093 18.3211C17.9276 18.3189 18.1364 18.2313 18.2909 18.077C18.4454 17.9227 18.5333 17.7141 18.5358 17.4958C18.5384 17.2775 18.4553 17.0668 18.3044 16.909L15.181 13.7856C16.2089 12.5007 16.8282 10.8749 16.8282 9.10782C16.8282 4.97554 13.4604 1.60944 9.32807 1.60944ZM9.32807 3.27613C12.5596 3.27613 15.1599 5.87629 15.1599 9.10782C15.1599 12.3393 12.5596 14.946 9.32807 14.946C6.09649 14.946 3.49628 12.3393 3.49628 9.10782C3.49628 5.87629 6.09649 3.27613 9.32807 3.27613Z" fill="white"/>
</g>
</g>
</svg>
