<svg xmlns="http://www.w3.org/2000/svg" width="20" height="20" viewBox="0 0 20 20" fill="none">
<path d="M8.74179 1.85781L4.58346 3.41614C3.62513 3.77448 2.8418 4.9078 2.8418 5.9328V12.1245C2.8418 13.1078 3.49181 14.3995 4.28347 14.9911L7.8668 17.6661C9.0418 18.5495 10.9751 18.5495 12.1501 17.6661L15.7335 14.9911C16.5251 14.3995 17.1751 13.1078 17.1751 12.1245V5.9328C17.1751 4.9078 16.3918 3.77448 15.4335 3.41614L11.2751 1.85781C10.5668 1.59948 9.43345 1.59948 8.74179 1.85781Z" stroke="#309C98" stroke-width="1.5" stroke-linecap="round" stroke-linejoin="round"/>
<path d="M9.99909 9.09937C9.96576 9.09937 9.92409 9.09937 9.89076 9.09937C9.10742 9.07437 8.48242 8.42436 8.48242 7.63269C8.48242 6.82436 9.14076 6.16602 9.9491 6.16602C10.7574 6.16602 11.4158 6.82436 11.4158 7.63269C11.4074 8.43269 10.7824 9.07437 9.99909 9.09937Z" stroke="#309C98" stroke-width="1.5" stroke-linecap="round" stroke-linejoin="round"/>
<path d="M8.34121 11.4328C7.54121 11.9661 7.54121 12.8411 8.34121 13.3745C9.24954 13.9828 10.7412 13.9828 11.6495 13.3745C12.4495 12.8411 12.4495 11.9661 11.6495 11.4328C10.7495 10.8245 9.25788 10.8245 8.34121 11.4328Z" stroke="#309C98" stroke-width="1.5" stroke-linecap="round" stroke-linejoin="round"/>
</svg>