<svg width="16" height="16" viewBox="0 0 16 16" fill="none" xmlns="http://www.w3.org/2000/svg">
<g id="vuesax/bold/share">
<path id="vuesax/bold/share_2" d="M12 14.6666C11.4444 14.6666 10.9722 14.4722 10.5833 14.0833C10.1944 13.6944 10 13.2222 10 12.6666C10 12.5889 10.0056 12.5082 10.0167 12.4246C10.0278 12.3415 10.0444 12.2666 10.0667 12.2L5.36667 9.46665C5.17778 9.63331 4.96667 9.76376 4.73333 9.85798C4.5 9.95265 4.25556 9.99998 4 9.99998C3.44444 9.99998 2.97222 9.80554 2.58333 9.41665C2.19444 9.02776 2 8.55554 2 7.99998C2 7.44442 2.19444 6.9722 2.58333 6.58331C2.97222 6.19442 3.44444 5.99998 4 5.99998C4.25556 5.99998 4.5 6.04709 4.73333 6.14131C4.96667 6.23598 5.17778 6.36665 5.36667 6.53331L10.0667 3.79998C10.0444 3.73331 10.0278 3.65842 10.0167 3.57531C10.0056 3.49176 10 3.41109 10 3.33331C10 2.77776 10.1944 2.30554 10.5833 1.91665C10.9722 1.52776 11.4444 1.33331 12 1.33331C12.5556 1.33331 13.0278 1.52776 13.4167 1.91665C13.8056 2.30554 14 2.77776 14 3.33331C14 3.88887 13.8056 4.36109 13.4167 4.74998C13.0278 5.13887 12.5556 5.33331 12 5.33331C11.7444 5.33331 11.5 5.28598 11.2667 5.19131C11.0333 5.09709 10.8222 4.96665 10.6333 4.79998L5.93333 7.53331C5.95556 7.59998 5.97222 7.67487 5.98333 7.75798C5.99444 7.84154 6 7.9222 6 7.99998C6 8.07776 5.99444 8.1582 5.98333 8.24131C5.97222 8.32487 5.95556 8.39998 5.93333 8.46665L10.6333 11.2C10.8222 11.0333 11.0333 10.9026 11.2667 10.808C11.5 10.7138 11.7444 10.6666 12 10.6666C12.5556 10.6666 13.0278 10.8611 13.4167 11.25C13.8056 11.6389 14 12.1111 14 12.6666C14 13.2222 13.8056 13.6944 13.4167 14.0833C13.0278 14.4722 12.5556 14.6666 12 14.6666Z" fill="#979A9B"/>
</g>
</svg>
