<svg width="21" height="20" viewBox="0 0 21 20" fill="none" xmlns="http://www.w3.org/2000/svg">
<path d="M13.4823 10C13.4823 11.65 12.149 12.9833 10.499 12.9833C8.84896 12.9833 7.51562 11.65 7.51562 10C7.51562 8.35 8.84896 7.01666 10.499 7.01666C12.149 7.01666 13.4823 8.35 13.4823 10Z" stroke="#979A9B" stroke-linecap="round" stroke-linejoin="round"/>
<path d="M10.5018 16.8917C13.4435 16.8917 16.1852 15.1583 18.0935 12.1583C18.8435 10.9833 18.8435 9.00832 18.0935 7.83332C16.1852 4.83332 13.4435 3.09999 10.5018 3.09999C7.56016 3.09999 4.81849 4.83332 2.91016 7.83332C2.16016 9.00832 2.16016 10.9833 2.91016 12.1583C4.81849 15.1583 7.56016 16.8917 10.5018 16.8917Z" stroke="#979A9B" stroke-linecap="round" stroke-linejoin="round"/>
</svg>
