<svg width="21" height="21" viewBox="0 0 21 21" fill="none" xmlns="http://www.w3.org/2000/svg">
<g id="vuesax/linear/smileys">
<g id="smileys">
<path id="Vector" d="M12.166 5.66662V8.83332C9.84102 8.87499 8.87435 9.84166 8.83268 12.1667H5.66602C3.16602 12.1667 2.16602 11.1667 2.16602 8.6667V5.66662C2.16602 3.16662 3.16602 2.16666 5.66602 2.16666H8.66601C11.166 2.16666 12.166 3.16662 12.166 5.66662Z" stroke="#309C98" stroke-linecap="round" stroke-linejoin="round"/>
<path id="Vector_2" d="M6.30065 5.39162C5.85898 5.09162 5.27565 5.09164 4.83398 5.4083" stroke="#309C98" stroke-miterlimit="10" stroke-linecap="round" stroke-linejoin="round"/>
<path id="Vector_3" d="M9.63268 5.39162C9.19101 5.09162 8.60768 5.09164 8.16602 5.4083" stroke="#309C98" stroke-miterlimit="10" stroke-linecap="round" stroke-linejoin="round"/>
<path id="Vector_4" d="M7.29935 10.0167H5.36602C5.11602 10.0167 4.91602 9.81667 4.91602 9.56667C4.91602 8.325 5.92435 7.31671 7.16602 7.31671C7.69935 7.31671 8.19102 7.50002 8.57435 7.80835" stroke="#309C98" stroke-miterlimit="10" stroke-linecap="round" stroke-linejoin="round"/>
<path id="Vector_5" d="M18.834 12.3333V15.3334C18.834 17.8334 17.834 18.8333 15.334 18.8333H12.334C9.83399 18.8333 8.83398 17.8334 8.83398 15.3334V12.1667C8.87565 9.84168 9.84232 8.87501 12.1673 8.83334H15.334C17.834 8.83334 18.834 9.8333 18.834 12.3333Z" stroke="#309C98" stroke-linecap="round" stroke-linejoin="round"/>
<path id="Vector_6" d="M12.9667 11.85C12.525 12.15 11.9417 12.15 11.5 11.8333" stroke="#309C98" stroke-miterlimit="10" stroke-linecap="round" stroke-linejoin="round"/>
<path id="Vector_7" d="M16.3006 11.85C15.859 12.15 15.2757 12.15 14.834 11.8333" stroke="#309C98" stroke-miterlimit="10" stroke-linecap="round" stroke-linejoin="round"/>
<path id="Vector_8" d="M12.034 13.9834H15.634C15.884 13.9834 16.084 14.1833 16.084 14.4333C16.084 15.675 15.0757 16.6834 13.834 16.6834C12.5923 16.6834 11.584 15.675 11.584 14.4333C11.584 14.1833 11.784 13.9834 12.034 13.9834Z" stroke="#309C98" stroke-miterlimit="10" stroke-linecap="round" stroke-linejoin="round"/>
</g>
</g>
</svg>
