<svg xmlns="http://www.w3.org/2000/svg" width="20" height="20" viewBox="0 0 20 20" fill="none">
  <path d="M14.8498 7.88362L14.8497 7.88373L14.86 7.88541L16.9845 8.23534C16.9845 8.23534 16.9846 8.23535 16.9846 8.23535C17.5774 8.33357 17.7703 8.5663 17.815 8.706C17.8601 8.84666 17.8379 9.151 17.4119 9.58098C17.4116 9.58121 17.4114 9.58145 17.4112 9.58168L15.7543 11.2385C15.5417 11.4511 15.398 11.7378 15.3188 12.0151C15.2395 12.2928 15.2094 12.6149 15.2793 12.9139C15.2793 12.9141 15.2793 12.9142 15.2794 12.9143L15.7541 14.9633L15.7541 14.9634C15.9314 15.7275 15.7529 16.0059 15.6629 16.0717C15.5732 16.1372 15.2541 16.2227 14.5807 15.821L14.5799 15.8205L12.5897 14.638C12.3133 14.4716 11.9788 14.4046 11.6745 14.4046C11.3703 14.4046 11.0358 14.4716 10.7594 14.638L8.77027 15.8199C8.77007 15.82 8.76987 15.8201 8.76967 15.8202C8.09611 16.2179 7.77602 16.1339 7.68537 16.068C7.59643 16.0032 7.41765 15.7277 7.59495 14.9634L7.59497 14.9633L8.06997 12.9133L8.07236 12.9029L8.07431 12.8925C8.12955 12.5979 8.09603 12.2811 8.01468 12.0042C7.93378 11.7289 7.79069 11.4428 7.5781 11.2302L5.91976 9.57184C5.49425 9.14632 5.47248 8.84418 5.51739 8.70391C5.56257 8.56283 5.75706 8.32888 6.34921 8.22679L8.47155 7.87723C8.47172 7.8772 8.47188 7.87718 8.47205 7.87715C8.75122 7.83159 9.02024 7.69501 9.23548 7.5349C9.45006 7.37527 9.65735 7.1579 9.7811 6.90533L10.9539 4.55968C10.9541 4.55929 10.9543 4.55891 10.9545 4.55853C11.239 3.99745 11.5239 3.88442 11.665 3.88477C11.8065 3.88512 12.0925 4.00011 12.3776 4.56624C12.3777 4.56644 12.3778 4.56664 12.3779 4.56683L13.5514 6.91372C13.676 7.16808 13.8847 7.38354 14.0985 7.54128C14.3141 7.70029 14.5788 7.83321 14.8498 7.88362Z" fill="#666666" stroke="#666666"/>
  <path d="M6.66602 4.79102H1.66602C1.32435 4.79102 1.04102 4.50768 1.04102 4.16602C1.04102 3.82435 1.32435 3.54102 1.66602 3.54102H6.66602C7.00768 3.54102 7.29102 3.82435 7.29102 4.16602C7.29102 4.50768 7.00768 4.79102 6.66602 4.79102Z" fill="#666666"/>
  <path d="M4.16602 16.459H1.66602C1.32435 16.459 1.04102 16.1757 1.04102 15.834C1.04102 15.4923 1.32435 15.209 1.66602 15.209H4.16602C4.50768 15.209 4.79102 15.4923 4.79102 15.834C4.79102 16.1757 4.50768 16.459 4.16602 16.459Z" fill="#666666"/>
  <path d="M2.49935 10.625H1.66602C1.32435 10.625 1.04102 10.3417 1.04102 10C1.04102 9.65833 1.32435 9.375 1.66602 9.375H2.49935C2.84102 9.375 3.12435 9.65833 3.12435 10C3.12435 10.3417 2.84102 10.625 2.49935 10.625Z" fill="#666666"/>
</svg>