<svg width="24" height="24" viewBox="0 0 24 24" fill="none" xmlns="http://www.w3.org/2000/svg">
<g id="Frame">
<path id="Vector" d="M22.5 19.5004H21V10.8332C21 10.6256 20.957 10.4202 20.8735 10.2301C20.7901 10.04 20.6681 9.86932 20.5153 9.7288L13.0153 2.65255C13.0116 2.64935 13.0082 2.6459 13.005 2.64223C12.7289 2.39111 12.369 2.25195 11.9958 2.25195C11.6225 2.25195 11.2627 2.39111 10.9866 2.64223L10.9762 2.65255L3.48469 9.7288C3.33187 9.86932 3.20989 10.04 3.12646 10.2301C3.04303 10.4202 2.99997 10.6256 3 10.8332V19.5004H1.5C1.30109 19.5004 1.11032 19.5794 0.96967 19.72C0.829018 19.8607 0.75 20.0514 0.75 20.2504C0.75 20.4493 0.829018 20.64 0.96967 20.7807C1.11032 20.9213 1.30109 21.0004 1.5 21.0004H22.5C22.6989 21.0004 22.8897 20.9213 23.0303 20.7807C23.171 20.64 23.25 20.4493 23.25 20.2504C23.25 20.0514 23.171 19.8607 23.0303 19.72C22.8897 19.5794 22.6989 19.5004 22.5 19.5004ZM14.25 19.5004H9.75V15.0004C9.75 14.8014 9.82902 14.6107 9.96967 14.47C10.1103 14.3294 10.3011 14.2504 10.5 14.2504H13.5C13.6989 14.2504 13.8897 14.3294 14.0303 14.47C14.171 14.6107 14.25 14.8014 14.25 15.0004V19.5004Z" fill="#121617"/>
</g>
</svg>
