<svg width="21" height="20" viewBox="0 0 21 20" fill="none" xmlns="http://www.w3.org/2000/svg">
<g id="vuesax/bold/tick-circle">
<g id="tick-circle">
<path id="Vector" d="M10.4993 1.66669C5.90768 1.66669 2.16602 5.40835 2.16602 10C2.16602 14.5917 5.90768 18.3334 10.4993 18.3334C15.091 18.3334 18.8327 14.5917 18.8327 10C18.8327 5.40835 15.091 1.66669 10.4993 1.66669ZM14.4827 8.08335L9.75768 12.8084C9.64102 12.925 9.48268 12.9917 9.31602 12.9917C9.14935 12.9917 8.99102 12.925 8.87435 12.8084L6.51602 10.45C6.27435 10.2084 6.27435 9.80835 6.51602 9.56669C6.75768 9.32502 7.15768 9.32502 7.39935 9.56669L9.31602 11.4834L13.5993 7.20002C13.841 6.95835 14.241 6.95835 14.4827 7.20002C14.7243 7.44169 14.7243 7.83335 14.4827 8.08335Z" fill="#309C98"/>
</g>
</g>
</svg>
