<svg xmlns="http://www.w3.org/2000/svg" width="24" height="24" viewBox="0 0 24 24" fill="none">
<path d="M23.0308 7.28105L20.2277 10.0842C19.6614 16.6485 14.1255 21.7504 7.50017 21.7504C6.13892 21.7504 5.01673 21.5348 4.16454 21.1092C3.47736 20.7651 3.19611 20.3967 3.12579 20.2917C3.0631 20.1977 3.02246 20.0907 3.00692 19.9787C2.99138 19.8668 3.00133 19.7528 3.03604 19.6453C3.07075 19.5377 3.12931 19.4394 3.20735 19.3577C3.2854 19.2759 3.3809 19.2129 3.48673 19.1732C3.51111 19.1639 5.75923 18.3004 7.18704 16.657C6.39522 16.006 5.70399 15.2414 5.13579 14.3882C3.97329 12.6623 2.67204 9.66417 3.07329 5.18386C3.08601 5.0415 3.13915 4.90573 3.22644 4.79256C3.31373 4.67938 3.43154 4.5935 3.566 4.54503C3.70047 4.49657 3.84598 4.48753 3.9854 4.51899C4.12483 4.55045 4.25236 4.6211 4.35298 4.72261C4.38579 4.75542 7.47298 7.82574 11.2474 8.82136V8.25042C11.2459 7.65173 11.3643 7.0588 11.5955 6.50655C11.8267 5.9543 12.1661 5.4539 12.5936 5.0348C13.0088 4.62017 13.5029 4.2929 14.0466 4.07231C14.5904 3.85172 15.1728 3.74227 15.7595 3.75042C16.5466 3.75819 17.3183 3.96947 17.9996 4.36374C18.6808 4.75801 19.2485 5.32184 19.6474 6.00042H22.5002C22.6486 6.00031 22.7937 6.04423 22.9172 6.12663C23.0406 6.20904 23.1368 6.32621 23.1936 6.46333C23.2505 6.60045 23.2653 6.75134 23.2363 6.8969C23.2073 7.04247 23.1358 7.17616 23.0308 7.28105Z" fill="white"/>
</svg>