<svg width="32" height="32" viewBox="0 0 32 32" fill="none" xmlns="http://www.w3.org/2000/svg">
<g id="vuesax/bold/user-octagon">
<g id="user-octagon">
<path id="Vector" d="M6.23688 8.2331L6.23723 8.23289L14.1416 3.66087C14.142 3.66067 14.1423 3.66047 14.1427 3.66027C15.2962 3.00159 16.7061 3.00306 17.8436 3.65977L25.7602 8.23116C25.7608 8.23148 25.7613 8.23179 25.7618 8.2321C26.903 8.90342 27.6077 10.1138 27.6202 11.4424V20.5601C27.6202 21.8891 26.9146 23.1102 25.7769 23.7671L25.7769 23.7671L17.8588 28.3393C17.8586 28.3394 17.8583 28.3396 17.8581 28.3397C16.7045 28.9986 15.2945 28.9972 14.1569 28.3404L6.2402 23.769C6.23971 23.7687 6.23923 23.7684 6.23874 23.7681C5.09742 23.0968 4.39355 21.8737 4.39355 20.5601V11.4401C4.39355 10.111 5.09913 8.88994 6.23688 8.2331ZM10.9055 19.8408L10.9052 19.8413C10.0862 21.0607 10.9394 22.7134 12.4269 22.7134H19.5736C21.0418 22.7134 21.9189 21.0511 21.0941 19.8395C20.0808 18.3356 18.1537 17.3667 16.0002 17.3667C13.8462 17.3667 11.9185 18.3362 10.9055 19.8408ZM19.6069 12.8934C19.6069 10.8973 17.9964 9.28675 16.0002 9.28675C14.0027 9.28675 12.3936 10.912 12.3936 12.8934C12.3936 14.8896 14.0041 16.5001 16.0002 16.5001C17.9964 16.5001 19.6069 14.8896 19.6069 12.8934Z" fill="#309C98" stroke="#309C98"/>
</g>
</g>
</svg>
